<?xml version="1.0" standalone="no"?>
<!DOCTYPE svg PUBLIC "-//W3C//DTD SVG 20010904//EN"
 "http://www.w3.org/TR/2001/REC-SVG-20010904/DTD/svg10.dtd">
<svg version="1.0" xmlns="http://www.w3.org/2000/svg"
 width="1344.000000pt" height="768.000000pt" viewBox="0 0 1344.000000 768.000000"
 preserveAspectRatio="xMidYMid meet">

<g transform="translate(0.000000,768.000000) scale(0.100000,-0.100000)"
fill="#000000" stroke="none">
<path d="M0 3840 l0 -3840 6720 0 6720 0 0 2626 c0 1790 -3 2631 -10 2645 -13
23 -30 25 -30 4 0 -22 -27 -18 -40 5 -15 28 -28 25 -32 -7 -3 -24 -7 -28 -31
-25 -27 3 -27 2 -21 -38 l7 -41 -27 11 c-40 15 -46 13 -46 -16 0 -21 -4 -25
-17 -19 -10 3 -30 9 -45 12 -15 3 -30 14 -33 24 -4 11 -12 16 -21 12 -10 -3
-18 5 -25 27 -11 30 -13 31 -50 25 l-39 -7 0 45 c0 38 4 47 21 52 15 5 19 12
15 28 -3 12 -6 32 -6 44 0 15 -7 23 -22 25 -20 3 -23 9 -23 47 0 75 29 77 185
11 74 -30 88 -35 140 -43 10 -2 28 -11 38 -20 28 -25 48 -21 62 13 8 19 19 29
29 28 14 -3 16 26 19 281 1 157 -1 282 -4 278 -4 -3 -14 1 -23 10 -15 15 -16
14 -21 -13 -3 -18 -14 -33 -28 -39 -15 -6 -21 -16 -18 -27 3 -13 -2 -18 -15
-18 -13 0 -19 -7 -19 -21 0 -37 -17 -57 -45 -52 -16 4 -25 1 -26 -8 -1 -8 -2
-18 -4 -24 -1 -5 -3 -18 -3 -28 -2 -14 -9 -18 -29 -15 -27 3 -28 1 -33 -52 -4
-43 -8 -54 -20 -51 -53 14 -70 9 -79 -22 l-9 -32 -1 36 c-1 39 -13 49 -57 49
-23 0 -24 2 -24 84 0 63 -4 87 -15 96 -9 7 -18 10 -22 7 -3 -4 -11 0 -17 8
-16 21 -80 6 -84 -20 -2 -11 -6 -27 -9 -35 -3 -8 -5 -21 -4 -27 1 -7 -7 -13
-19 -13 -11 0 -20 5 -20 10 0 19 -29 10 -35 -10 -5 -16 -12 -19 -28 -14 -43
14 -61 10 -67 -16 -7 -29 -50 -42 -50 -16 0 30 -19 16 -22 -16 -2 -17 -9 -33
-15 -36 -10 -3 -13 69 -13 337 0 320 1 340 18 335 16 -5 16 -5 0 6 -16 10 -18
28 -18 146 0 104 3 135 13 131 6 -2 11 -12 9 -21 -3 -14 1 -16 17 -11 18 5 21
2 21 -19 0 -14 4 -26 9 -26 5 0 11 -12 13 -27 2 -23 10 -29 48 -40 82 -24 90
-24 91 0 1 12 1 25 0 30 0 4 9 7 21 8 l23 0 -22 9 c-25 10 -30 39 -10 59 10
11 10 14 0 18 -7 3 -13 9 -13 14 0 6 4 7 10 4 20 -12 10 6 -17 32 -18 17 -22
24 -10 20 9 -4 17 -2 17 3 0 6 -9 10 -19 10 -11 0 -22 6 -25 13 -3 6 -3 2 0
-10 3 -13 1 -23 -5 -23 -6 0 -11 10 -11 23 -1 22 -1 22 -15 -3 -8 -14 -14 -20
-15 -15 0 6 -13 10 -29 10 -19 0 -27 -4 -24 -12 3 -8 -2 -13 -12 -13 -14 0
-15 -3 -5 -15 10 -12 9 -16 -6 -22 -10 -4 -19 -2 -22 5 -2 7 -9 12 -16 12 -8
0 -12 19 -13 55 -1 38 2 55 11 55 8 0 11 -11 9 -32 -2 -18 0 -27 3 -21 4 9 11
10 23 4 26 -14 39 0 38 41 -1 27 -4 35 -13 28 -8 -8 -10 -3 -6 15 3 20 1 24
-12 19 -9 -3 -16 -2 -16 4 0 6 8 9 18 7 9 -2 21 -4 25 -4 5 -1 5 -5 2 -11 -3
-5 -1 -10 4 -10 6 0 11 5 11 11 0 12 43 1 48 -12 2 -4 9 -6 15 -3 15 5 249
-71 241 -79 -3 -3 5 -3 18 0 19 4 20 3 8 -7 -13 -10 -12 -11 3 -6 10 3 76 -12
145 -35 70 -23 160 -52 201 -65 40 -13 80 -24 87 -24 12 0 14 85 14 530 l0
530 -6720 0 -6720 0 0 -3840z m4488 3443 c5 -34 -34 -31 -41 3 -4 21 -1 25 17
22 13 -2 22 -12 24 -25z m3240 10 c-2 -10 -12 -19 -22 -21 -11 -3 -16 0 -11 7
3 6 11 9 16 6 5 -3 6 1 3 9 -3 9 -1 16 6 16 6 0 10 -8 8 -17z m-241 1 c-3 -3
-12 -4 -19 -1 -8 3 -5 6 6 6 11 1 17 -2 13 -5z m133 -15 c0 -5 -9 -9 -20 -9
-19 0 -26 11 -14 23 8 8 34 -3 34 -14z m54 12 c3 -5 -1 -11 -9 -15 -15 -6 -29
7 -18 18 9 9 21 8 27 -3z m106 -1 c0 -5 -4 -10 -10 -10 -5 0 -10 5 -10 10 0 6
5 10 10 10 6 0 10 -4 10 -10z m51 -13 c-10 -9 -11 -8 -5 6 3 10 9 15 12 12 3
-3 0 -11 -7 -18z m96 17 c-3 -3 -12 -4 -19 -1 -8 3 -5 6 6 6 11 1 17 -2 13 -5z
m-707 -13 c0 -12 -20 -25 -27 -18 -7 7 6 27 18 27 5 0 9 -4 9 -9z m136 -12 c3
-5 -8 -9 -25 -9 -31 0 -50 15 -29 23 17 5 47 -3 54 -14z m69 11 c3 -6 -1 -13
-10 -16 -19 -8 -30 0 -20 15 8 14 22 14 30 1z m117 -12 c-5 -5 -17 -6 -26 -2
-13 5 -14 9 -5 14 16 11 43 0 31 -12z m338 12 c0 -5 -4 -10 -10 -10 -5 0 -10
5 -10 10 0 6 5 10 10 10 6 0 10 -4 10 -10z m92 -12 c-7 -7 -12 -8 -12 -2 0 14
12 26 19 19 2 -3 -1 -11 -7 -17z m-802 2 c0 -5 -4 -10 -10 -10 -5 0 -10 5 -10
10 0 6 5 10 10 10 6 0 10 -4 10 -10z m100 0 c0 -5 -7 -10 -15 -10 -8 0 -15 5
-15 10 0 6 7 10 15 10 8 0 15 -4 15 -10z m215 0 c-3 -5 -13 -10 -21 -10 -8 0
-14 5 -14 10 0 6 9 10 21 10 11 0 17 -4 14 -10z m-1877 -36 c12 -4 22 -13 22
-21 0 -10 -7 -14 -20 -10 -11 3 -26 0 -33 -6 -7 -7 -23 -18 -36 -25 -20 -11
-25 -12 -32 -1 -9 16 4 34 40 53 32 17 31 17 59 10z m45 -64 c7 -27 -13 -37
-30 -15 -18 26 -16 35 6 35 10 0 21 -9 24 -20z m-1203 -37 c0 -13 -3 -13 -15
-3 -8 7 -15 16 -15 21 0 5 7 6 15 3 8 -4 15 -13 15 -21z m810 13 c0 -2 -7 -7
-16 -10 -8 -3 -12 -2 -9 4 6 10 25 14 25 6z m-842 -18 c14 -14 16 -28 2 -28
-5 0 -14 9 -20 20 -12 22 -1 27 18 8z m1066 -3 c-4 -8 -10 -12 -15 -9 -14 8
-10 24 6 24 9 0 12 -6 9 -15z m1926 -6 c0 -5 -9 -9 -20 -9 -13 0 -18 5 -14 14
6 15 34 11 34 -5z m55 10 c10 -15 -1 -23 -20 -15 -9 3 -13 10 -10 16 8 13 22
13 30 -1z m70 2 c7 -12 -12 -24 -25 -16 -11 7 -4 25 10 25 5 0 11 -4 15 -9z
m75 -1 c0 -5 -9 -10 -21 -10 -11 0 -17 5 -14 10 3 6 13 10 21 10 8 0 14 -4 14
-10z m-1878 -14 c8 5 9 2 5 -9 -5 -13 -1 -17 15 -17 16 0 19 -3 11 -11 -7 -7
-19 -8 -30 -4 -10 4 -27 8 -39 9 -22 2 -57 30 -48 39 3 3 21 1 40 -4 19 -6 39
-7 46 -3z m1608 4 c0 -5 -7 -10 -15 -10 -8 0 -15 5 -15 10 0 6 7 10 15 10 8 0
15 -4 15 -10z m-2976 -15 c-4 -8 -8 -15 -10 -15 -2 0 -4 7 -4 15 0 8 4 15 10
15 5 0 7 -7 4 -15z m864 3 c8 -8 15 -8 27 2 11 9 15 9 15 1 0 -7 4 -9 10 -6 5
3 20 -1 32 -9 12 -9 31 -16 42 -16 18 0 19 -1 1 -20 -23 -25 -32 -25 -53 -1
-29 32 -67 35 -98 6 -29 -27 -34 -29 -49 -17 -14 10 -13 28 3 44 10 10 14 10
21 0 6 -10 10 -9 14 7 6 24 17 27 35 9z m1097 -2 c10 -7 27 -11 38 -8 14 3 18
1 13 -6 -12 -19 -60 -14 -74 8 -14 23 -4 26 23 6z m-1440 -6 c6 -1 -7 -8 -27
-17 -21 -8 -38 -19 -38 -24 0 -5 -18 -16 -40 -25 -22 -9 -40 -22 -40 -29 0 -7
-7 -16 -16 -19 -12 -5 -14 -1 -8 16 7 22 42 57 57 58 5 0 5 10 2 21 -6 19 -4
21 14 16 11 -3 21 -2 21 3 0 6 19 7 75 0z m580 -10 c0 -8 -10 -16 -22 -18 -13
-2 -23 -8 -23 -15 0 -8 -3 -8 -11 0 -8 8 -6 17 8 31 20 23 48 24 48 2z m800
10 c3 -5 1 -10 -4 -10 -6 0 -11 5 -11 10 0 6 2 10 4 10 3 0 8 -4 11 -10z
m-1291 -14 c18 6 19 5 7 -10 -20 -24 1 -43 46 -41 21 0 44 -5 52 -13 13 -13 9
-13 -30 -7 -74 11 -119 27 -119 42 0 7 -7 16 -15 19 -8 4 -15 10 -15 15 0 5
12 4 26 -2 15 -5 36 -6 48 -3z m2704 -3 c2 -8 -5 -13 -17 -13 -12 0 -21 6 -21
16 0 18 31 15 38 -3z m72 2 c0 -8 -7 -15 -15 -15 -8 0 -15 7 -15 15 0 8 7 15
15 15 8 0 15 -7 15 -15z m-412 -13 c2 -7 -6 -12 -17 -12 -21 0 -27 11 -14 24
9 9 26 2 31 -12z m62 2 c0 -17 -22 -14 -28 4 -2 7 3 12 12 12 9 0 16 -7 16
-16z m70 0 c0 -9 -7 -14 -17 -12 -25 5 -28 28 -4 28 12 0 21 -6 21 -16z m68 4
c-7 -19 -38 -22 -38 -4 0 10 9 16 21 16 12 0 19 -5 17 -12z m72 -4 c0 -9 -7
-14 -17 -12 -25 5 -28 28 -4 28 12 0 21 -6 21 -16z m210 6 c0 -5 -7 -10 -15
-10 -8 0 -15 5 -15 10 0 6 7 10 15 10 8 0 15 -4 15 -10z m-3330 -7 c-1 -16
-29 -45 -38 -39 -16 10 -1 46 19 46 11 0 19 -3 19 -7z m1642 0 c-9 -3 -10 -9
-2 -17 8 -10 3 -11 -26 -2 l-35 11 28 6 c35 8 52 9 35 2z m127 -2 c18 -11 5
-31 -20 -31 -18 0 -26 20 -12 33 8 9 15 9 32 -2z m-1598 -17 c8 -10 9 -18 2
-22 -12 -8 -13 -72 -1 -72 12 0 10 -26 -4 -37 -7 -5 -24 -7 -38 -3 -24 6 -24
6 -5 17 17 10 18 15 8 32 -7 11 -10 27 -7 36 5 11 -1 15 -22 15 -25 1 -27 2
-11 11 10 6 25 8 33 5 9 -3 12 -1 9 4 -7 11 2 30 14 30 5 0 14 -7 22 -16z
m1669 -4 c0 -5 -7 -10 -16 -10 -8 0 -12 5 -9 10 3 6 10 10 16 10 5 0 9 -4 9
-10z m-1815 -30 c17 -18 17 -20 1 -26 -20 -8 -52 19 -42 35 10 16 21 14 41 -9z
m1420 10 c-3 -5 -14 -10 -23 -9 -14 0 -13 2 3 9 27 11 27 11 20 0z m1589 4
c22 -9 20 -24 -3 -24 -21 0 -34 13 -24 24 8 7 8 7 27 0z m84 -11 c2 -8 -5 -13
-17 -13 -12 0 -21 6 -21 16 0 18 31 15 38 -3z m70 0 c2 -8 -5 -13 -17 -13 -12
0 -21 6 -21 16 0 18 31 15 38 -3z m72 3 c0 -8 -4 -17 -8 -20 -13 -8 -35 11
-28 23 10 16 36 14 36 -3z m-2600 -6 c0 -5 -7 -10 -15 -10 -8 0 -15 5 -15 10
0 6 7 10 15 10 8 0 15 -4 15 -10z m2188 -2 c-3 -7 -11 -13 -18 -13 -7 0 -15 6
-17 13 -3 7 4 12 17 12 13 0 20 -5 18 -12z m72 4 c0 -14 -11 -21 -26 -15 -21
8 -17 23 6 23 11 0 20 -4 20 -8z m52 -4 c-9 -9 -15 -9 -24 0 -9 9 -7 12 12 12
19 0 21 -3 12 -12z m368 4 c0 -14 -11 -21 -26 -15 -21 8 -17 23 6 23 11 0 20
-4 20 -8z m-5445 -51 c9 -16 -11 -21 -46 -14 -33 7 -33 7 -9 14 36 10 48 10
55 0z m2156 2 c0 -5 2 -21 4 -36 l4 -29 -25 27 c-13 14 -22 31 -19 36 7 11 35
12 36 2z m2799 -14 c0 -11 -27 -12 -34 0 -3 4 -3 11 0 14 8 8 34 -3 34 -14z
m65 11 c3 -6 -1 -13 -10 -16 -19 -8 -30 0 -20 15 8 14 22 14 30 1z m63 -2 c-6
-18 -28 -21 -28 -4 0 9 7 16 16 16 9 0 14 -5 12 -12z m62 2 c0 -5 -7 -10 -15
-10 -8 0 -15 5 -15 10 0 6 7 10 15 10 8 0 15 -4 15 -10z m78 -2 c-7 -19 -38
-22 -38 -4 0 10 9 16 21 16 12 0 19 -5 17 -12z m72 -4 c0 -9 -7 -14 -17 -12
-25 5 -28 28 -4 28 12 0 21 -6 21 -16z m70 0 c0 -9 -7 -14 -17 -12 -25 5 -28
28 -4 28 12 0 21 -6 21 -16z m78 -1 c2 -8 -5 -13 -17 -13 -12 0 -21 6 -21 16
0 18 31 15 38 -3z m-5523 -13 c3 -5 1 -10 -4 -10 -6 0 -11 5 -11 10 0 6 2 10
4 10 3 0 8 -4 11 -10z m-78 -17 c3 -7 -15 -14 -44 -18 -26 -4 -79 -13 -116
-20 -37 -6 -70 -8 -73 -4 -7 12 39 29 76 29 16 0 31 4 35 9 3 5 23 8 45 7 22
-2 43 1 46 6 7 11 26 6 31 -9z m38 7 c3 -5 2 -10 -4 -10 -5 0 -13 5 -16 10 -3
6 -2 10 4 10 5 0 13 -4 16 -10z m5205 -31 c0 -5 -7 -9 -15 -9 -8 0 -15 7 -15
15 0 9 6 12 15 9 8 -4 15 -10 15 -15z m65 11 c3 -6 -1 -13 -10 -16 -19 -8 -30
0 -20 15 8 14 22 14 30 1z m68 -5 c1 -5 -6 -11 -15 -13 -11 -2 -18 3 -18 13 0
17 30 18 33 0z m75 -3 c2 -7 -6 -12 -17 -12 -21 0 -27 11 -14 24 9 9 26 2 31
-12z m72 3 c0 -8 -6 -15 -14 -15 -17 0 -28 14 -19 24 12 12 33 6 33 -9z m-430
-5 c0 -5 -5 -10 -11 -10 -5 0 -7 5 -4 10 3 6 8 10 11 10 2 0 4 -4 4 -10z m80
0 c0 -5 -7 -10 -15 -10 -8 0 -15 5 -15 10 0 6 7 10 15 10 8 0 15 -4 15 -10z
m424 1 c3 -4 3 -11 0 -14 -8 -8 -34 3 -34 14 0 11 27 12 34 0z m-5844 -23 c0
-4 -13 -8 -30 -8 -16 0 -30 4 -30 8 0 5 14 9 30 9 17 0 30 -4 30 -9z m435
-580 c4 -326 8 -594 9 -595 1 -1 33 9 72 22 51 18 90 25 149 25 99 0 146 -13
189 -51 31 -27 35 -28 47 -12 25 30 92 73 113 73 15 0 39 25 81 83 158 217
266 287 443 287 104 0 151 -18 215 -83 55 -54 89 -140 86 -210 l-3 -50 46 -23
c56 -28 73 -49 24 -29 -23 10 -70 15 -133 15 -88 0 -102 -3 -135 -25 -20 -14
-41 -25 -46 -25 -17 0 -116 -43 -156 -68 -36 -22 -42 -23 -83 -12 -24 7 -46
16 -48 20 -3 5 35 38 85 74 49 36 90 69 89 73 0 5 -4 16 -8 26 -6 16 -21 7
-118 -61 -61 -44 -124 -83 -141 -87 -17 -3 -36 -13 -43 -21 -6 -8 -17 -14 -24
-14 -7 0 -34 -9 -60 -21 l-47 -21 -30 22 -30 22 -29 -28 c-33 -31 -36 -46 -14
-64 17 -14 21 -45 5 -35 -12 7 -14 -64 -2 -81 4 -6 24 -14 45 -17 35 -6 38 -4
44 23 12 64 80 77 139 27 22 -19 27 -34 31 -90 6 -75 23 -97 75 -97 38 0 49
26 41 104 -5 62 1 79 21 59 8 -8 97 -43 109 -43 16 0 -5 154 -22 166 -13 10
-8 13 31 19 25 4 54 5 64 3 16 -4 14 -7 -10 -17 l-29 -12 6 -96 c4 -53 11
-101 17 -107 23 -23 11 -38 -27 -34 l-38 3 0 -74 c0 -64 3 -75 24 -92 14 -11
32 -17 45 -13 50 12 83 11 106 -4 14 -9 48 -19 75 -22 47 -6 48 -7 21 -15 -19
-5 -40 -4 -60 4 -60 25 -71 24 -84 -4 -12 -26 -15 -27 -65 -21 -73 10 -131 41
-167 89 -16 22 -30 46 -30 51 0 7 -20 10 -53 8 -49 -3 -54 -2 -65 23 -7 14
-12 33 -12 41 0 29 -40 72 -86 94 -54 27 -67 20 -30 -17 15 -14 23 -30 19 -34
-11 -10 -215 -59 -246 -59 -13 0 -44 -7 -68 -16 -24 -8 -55 -18 -69 -20 -14
-3 -73 -21 -132 -41 -121 -40 -127 -39 -230 13 -76 37 -80 37 -165 -15 -60
-37 -95 -39 -139 -9 -38 26 -50 59 -33 91 17 32 37 44 92 58 46 11 49 14 81
78 19 36 46 78 61 94 15 15 23 27 16 27 -6 0 -91 -16 -189 -35 -97 -19 -229
-45 -292 -56 -63 -12 -124 -25 -135 -30 -11 -4 -51 -13 -90 -20 -38 -7 -144
-27 -235 -46 -172 -35 -411 -81 -565 -109 -90 -17 -140 -33 -102 -34 29 0 10
-17 -25 -22 -18 -3 -42 -9 -52 -13 -16 -7 -18 -5 -13 15 l6 23 -27 -26 c-31
-29 -68 -42 -76 -28 -4 5 2 15 11 21 20 12 -78 6 -151 -10 -22 -5 -44 -7 -48
-4 -11 7 3 1448 14 1455 5 3 42 12 81 19 40 7 76 17 81 22 6 4 24 8 41 8 27 0
175 20 270 36 17 3 75 12 130 19 55 8 143 21 195 30 136 22 190 27 190 16 0
-5 -26 -12 -57 -15 -32 -4 -98 -13 -148 -21 -49 -7 -130 -18 -180 -25 -49 -6
-146 -20 -215 -31 -105 -18 -129 -25 -148 -46 -12 -13 -26 -22 -31 -18 -5 3
-13 0 -17 -6 -9 -15 -28 -18 941 135 259 41 540 84 790 121 99 15 182 29 184
31 2 2 14 4 26 4 l22 0 8 -592z m2182 576 c-3 -3 -12 -4 -19 -1 -8 3 -5 6 6 6
11 1 17 -2 13 -5z m-2772 -14 c3 -5 4 -10 1 -10 -2 0 -12 -3 -20 -6 -12 -5
-15 -2 -10 10 7 18 20 21 29 6z m3915 0 c0 -5 -5 -10 -11 -10 -5 0 -7 5 -4 10
3 6 8 10 11 10 2 0 4 -4 4 -10z m177 4 c-3 -3 -12 -4 -19 -1 -8 3 -5 6 6 6 11
1 17 -2 13 -5z m-4153 -19 c-10 -8 -37 -14 -59 -14 -32 0 -37 2 -22 10 9 5 21
8 25 5 4 -2 14 -1 22 5 8 5 24 9 34 9 20 0 20 0 0 -15z m4186 5 c0 -5 -5 -10
-11 -10 -5 0 -7 5 -4 10 3 6 8 10 11 10 2 0 4 -4 4 -10z m260 -10 c0 -11 -4
-20 -10 -20 -5 0 -10 9 -10 20 0 11 5 20 10 20 6 0 10 -9 10 -20z m1123 14
c11 -11 -3 -24 -18 -18 -8 4 -12 10 -9 15 6 11 18 12 27 3z m67 -4 c0 -5 -7
-10 -15 -10 -8 0 -15 5 -15 10 0 6 7 10 15 10 8 0 15 -4 15 -10z m70 0 c0 -5
-6 -10 -14 -10 -8 0 -18 5 -21 10 -3 6 3 10 14 10 12 0 21 -4 21 -10z m60 0
c0 -5 -9 -10 -20 -10 -11 0 -20 5 -20 10 0 6 9 10 20 10 11 0 20 -4 20 -10z
m75 0 c3 -5 -3 -10 -14 -10 -11 0 -23 5 -26 10 -3 6 3 10 14 10 11 0 23 -4 26
-10z m75 0 c0 -5 -9 -10 -20 -10 -11 0 -20 5 -20 10 0 6 9 10 20 10 11 0 20
-4 20 -10z m70 0 c0 -5 -9 -10 -20 -10 -11 0 -20 5 -20 10 0 6 9 10 20 10 11
0 20 -4 20 -10z m75 0 c3 -5 -3 -10 -14 -10 -12 0 -21 5 -21 10 0 6 6 10 14
10 8 0 18 -4 21 -10z m-2445 -20 c0 -5 -7 -7 -15 -4 -8 4 -15 8 -15 10 0 2 7
4 15 4 8 0 15 -4 15 -10z m-613 -6 c-3 -3 -12 -4 -19 -1 -8 3 -5 6 6 6 11 1
17 -2 13 -5z m103 2 c0 -11 -19 -15 -25 -6 -3 5 1 10 9 10 9 0 16 -2 16 -4z
m410 -2 c0 -8 -19 -13 -24 -6 -3 5 1 9 9 9 8 0 15 -2 15 -3z m-3752 -20 c-7
-6 -166 -34 -195 -34 -34 0 -28 17 7 22 17 3 30 1 30 -3 0 -3 15 -2 34 5 33
11 133 20 124 10z m5804 -16 c-6 -6 -16 -7 -22 -3 -9 6 -9 9 1 16 17 10 34 0
21 -13z m66 10 c-6 -18 -28 -21 -28 -4 0 9 7 16 16 16 9 0 14 -5 12 -12z m63
-3 c-1 -15 -24 -12 -29 3 -3 9 2 13 12 10 10 -1 17 -7 17 -13z m67 3 c-3 -7
-11 -13 -18 -13 -7 0 -15 6 -17 13 -3 7 4 12 17 12 13 0 20 -5 18 -12z m75 -3
c-4 -15 -36 -12 -41 3 -3 9 3 13 19 10 13 -1 23 -7 22 -13z m75 4 c-2 -6 -7
-10 -11 -10 -4 1 -14 1 -22 1 -8 0 -15 5 -15 10 0 6 12 10 26 10 14 0 24 -5
22 -11z m72 1 c0 -5 -9 -10 -20 -10 -11 0 -20 5 -20 10 0 6 9 10 20 10 11 0
20 -4 20 -10z m75 0 c-3 -5 -13 -10 -21 -10 -8 0 -14 5 -14 10 0 6 9 10 21 10
11 0 17 -4 14 -10z m-6535 -30 c12 -8 11 -10 -7 -10 -13 0 -23 5 -23 10 0 13
11 13 30 0z m6465 -10 c4 -6 -5 -10 -20 -10 -15 0 -24 4 -20 10 3 6 12 10 20
10 8 0 17 -4 20 -10z m-222 -7 c-7 -2 -19 -2 -25 0 -7 3 -2 5 12 5 14 0 19 -2
13 -5z m64 1 c-3 -3 -12 -4 -19 -1 -8 3 -5 6 6 6 11 1 17 -2 13 -5z m66 -1
c-7 -2 -19 -2 -25 0 -7 3 -2 5 12 5 14 0 19 -2 13 -5z m3112 -11 c-3 -3 -11 0
-18 7 -9 10 -8 11 6 5 10 -3 15 -9 12 -12z m-45 -2 c0 -5 -5 -10 -11 -10 -5 0
-7 5 -4 10 3 6 8 10 11 10 2 0 4 -4 4 -10z m-73 -36 c-3 -3 -12 -4 -19 -1 -8
3 -5 6 6 6 11 1 17 -2 13 -5z m43 -14 c0 -5 -7 -7 -15 -4 -8 4 -15 8 -15 10 0
2 7 4 15 4 8 0 15 -4 15 -10z m-10313 -27 c-4 -3 -21 -7 -37 -8 -36 -2 -27 11
10 17 28 4 37 1 27 -9z m10390 -4 c24 -12 42 -23 40 -25 -2 -2 -21 5 -43 15
-21 10 -46 21 -54 24 -12 4 -12 6 -1 6 8 1 34 -9 58 -20z m-130 -35 c2 -7 -6
-10 -22 -6 -35 6 -44 24 -9 20 15 -2 29 -8 31 -14z m48 -14 c3 -5 -3 -10 -15
-10 -12 0 -18 5 -15 10 3 6 10 10 15 10 5 0 12 -4 15 -10z m71 -25 c-4 -10 1
-15 15 -15 13 0 18 4 13 12 -4 7 -3 8 4 4 7 -4 12 -12 12 -18 0 -13 -80 -2
-95 13 -7 7 -4 8 8 4 10 -4 17 -2 17 4 0 6 7 11 16 11 10 0 14 -6 10 -15z
m-86 -26 c0 -12 -17 -11 -25 1 -4 6 -11 7 -17 4 -6 -4 -8 -2 -5 4 8 12 47 4
47 -9z m37 -5 c-3 -3 -12 -4 -19 -1 -8 3 -5 6 6 6 11 1 17 -2 13 -5z m40 -10
c-3 -3 -12 -4 -19 -1 -8 3 -5 6 6 6 11 1 17 -2 13 -5z m162 -107 c0 -62 1
-119 3 -127 2 -11 -5 -14 -27 -13 -54 5 -55 5 -34 31 24 31 24 48 2 62 -16 10
-16 11 -1 6 14 -4 18 3 21 37 2 23 4 3 3 -46 -1 -53 3 -87 9 -87 6 0 9 17 7
41 -4 43 7 209 14 209 2 0 4 -51 3 -113z m-276 78 c29 -3 159 -53 171 -65 13
-13 3 -12 -31 2 -15 6 -35 12 -43 13 -8 0 -31 8 -50 18 -19 9 -57 23 -85 31
-27 8 -35 13 -17 10 19 -3 43 -7 55 -9z m177 -15 c0 -5 -4 -10 -10 -10 -5 0
-10 5 -10 10 0 6 5 10 10 10 6 0 10 -4 10 -10z m-203 -16 c-3 -3 -12 -4 -19
-1 -8 3 -5 6 6 6 11 1 17 -2 13 -5z m55 -55 c36 -16 71 -29 77 -29 7 0 14 -7
17 -15 4 -8 15 -15 25 -15 10 0 19 -4 19 -10 0 -16 -34 -12 -97 11 -32 11 -77
27 -101 35 -23 9 -40 20 -36 25 3 5 13 5 24 -1 39 -21 70 -30 70 -20 0 5 -27
18 -60 27 -33 10 -60 21 -60 26 0 11 47 -2 122 -34z m178 21 c0 -5 -5 -10 -11
-10 -5 0 -7 5 -4 10 3 6 8 10 11 10 2 0 4 -4 4 -10z m-103 -16 c-3 -3 -12 -4
-19 -1 -8 3 -5 6 6 6 11 1 17 -2 13 -5z m43 -14 c13 -8 13 -10 -2 -10 -9 0
-20 5 -23 10 -8 13 5 13 25 0z m-210 -32 c0 -6 9 -8 20 -5 11 3 22 2 25 -2 2
-4 44 -20 92 -36 100 -32 102 -33 84 -44 -9 -6 -2 -11 22 -15 19 -4 40 -13 47
-21 9 -10 -5 -8 -48 8 -33 12 -58 26 -55 31 4 5 1 6 -5 2 -14 -8 -152 43 -152
56 0 5 -4 7 -9 3 -6 -3 -24 3 -41 14 -31 18 -31 19 -6 19 14 0 26 -5 26 -10z
m-5556 -49 c30 -36 41 -69 32 -104 -10 -39 -25 -30 -51 30 -27 59 -38 67 -55
35 -15 -27 -34 -25 -48 5 -6 14 -15 25 -19 25 -14 0 -51 -64 -58 -99 -7 -33
-8 -34 -21 -16 -23 31 -17 77 16 117 30 36 31 37 105 37 70 0 75 -1 99 -30z
m5816 -5 c0 -8 -4 -12 -10 -9 -5 3 -10 10 -10 16 0 5 5 9 10 9 6 0 10 -7 10
-16z m90 -64 c0 -5 -7 -7 -15 -4 -8 4 -15 8 -15 10 0 2 7 4 15 4 8 0 15 -4 15
-10z m-5989 -24 c22 -1 79 -51 79 -69 0 -12 -68 -26 -115 -24 -58 2 -65 14
-41 72 13 29 20 36 33 30 10 -4 30 -8 44 -9z m4465 -270 l28 -23 -19 -39 c-17
-35 -20 -36 -23 -16 -4 28 -27 39 -47 22 -13 -11 -18 -10 -29 5 -18 25 -25 10
-32 -67 l-6 -63 21 25 c11 14 23 33 27 43 3 9 10 17 17 17 19 0 57 -43 57 -66
0 -12 7 -24 15 -28 17 -6 17 -5 15 82 -1 34 2 62 7 62 16 0 33 -41 39 -88 2
-26 7 -62 9 -80 3 -29 1 -33 -13 -27 -38 16 -90 27 -138 29 -73 2 -88 18 -81
82 6 62 42 138 62 130 7 -2 19 2 25 10 17 20 35 18 66 -10z m-4850 -51 c9 -22
-12 -42 -46 -47 -22 -3 -30 0 -30 10 0 39 64 70 76 37z m205 -18 c-16 -16 -14
-69 5 -95 19 -27 28 -28 54 -2 24 24 26 68 5 96 -19 25 -19 34 0 34 8 0 24
-15 35 -32 14 -24 28 -33 48 -34 16 -1 38 -4 49 -8 16 -5 23 -2 28 14 7 22 32
50 45 50 4 0 -1 -17 -11 -37 -24 -48 -24 -52 6 -88 24 -29 25 -29 40 -11 20
27 19 104 -2 128 -11 13 -12 18 -3 18 22 0 76 -38 90 -65 16 -29 35 -32 49 -7
8 13 10 3 11 -43 0 -33 7 -73 15 -89 20 -37 21 -156 2 -156 -31 0 -47 34 -40
87 3 29 3 59 0 67 -6 14 -10 14 -39 -4 -18 -11 -45 -20 -60 -20 -19 0 -32 -9
-48 -35 -32 -51 -70 -75 -123 -75 -54 0 -95 29 -121 87 -14 33 -25 41 -64 53
-26 8 -53 16 -59 18 -19 5 -17 -96 2 -132 17 -33 19 -39 6 -31 -5 3 -17 -2
-25 -11 -26 -26 -46 -1 -46 57 0 50 -7 58 -27 38 -16 -16 -70 6 -90 37 -8 13
-15 45 -16 71 -2 42 1 48 18 48 14 0 21 -8 23 -25 2 -16 16 -34 38 -48 19 -12
39 -33 43 -45 8 -20 10 -18 16 17 4 21 8 69 9 105 1 66 1 67 19 45 l18 -23 33
20 c18 10 42 29 52 40 12 13 20 16 22 9 3 -7 -1 -17 -7 -23z m2569 25 l-35 -5
30 -6 c37 -8 38 -24 7 -74 -13 -21 -21 -46 -19 -55 3 -12 5 -10 6 6 0 12 6 22
11 22 6 0 10 6 10 14 0 8 16 31 35 52 32 34 38 36 76 30 50 -8 81 -30 107 -76
24 -41 42 -133 31 -151 -4 -8 -3 -19 2 -26 14 -16 3 -33 -22 -33 -11 0 -17 -5
-14 -10 3 -6 0 -12 -7 -14 -7 -2 -47 -14 -88 -26 -41 -12 -109 -35 -151 -51
-104 -40 -125 -38 -75 5 21 19 55 43 75 53 19 10 40 22 46 26 5 4 18 13 28 20
17 12 16 13 -9 12 -32 0 -53 32 -57 85 -1 16 -6 30 -11 30 -4 0 -5 -11 -2 -25
4 -15 2 -25 -4 -25 -7 0 -9 -9 -5 -22 5 -20 4 -21 -5 -5 -13 21 -39 22 -46 2
-3 -8 -14 -17 -25 -20 -10 -4 -19 -13 -19 -21 0 -18 -47 -19 -66 0 -19 20 -18
26 5 26 11 0 22 6 24 13 4 9 8 8 16 -3 5 -8 11 -12 13 -10 23 36 27 50 16 51
-10 0 -10 2 0 6 18 7 14 23 -6 23 -19 0 -46 43 -34 54 3 4 7 13 8 22 2 11 -3
13 -18 8 -17 -5 -18 -3 -9 15 7 12 20 21 31 21 28 0 51 11 44 21 -11 18 27 21
53 3 l28 -17 -17 26 c-20 30 -13 36 42 35 l35 -1 -35 -5z m-1972 -14 c19 -19
14 -28 -16 -28 -27 0 -52 15 -52 32 0 13 55 9 68 -4z m7905 -109 c-9 -9 -12
-7 -10 9 1 14 5 18 11 12 7 -7 6 -14 -1 -21z m-7886 -16 c-3 -3 -11 -2 -17 2
-8 5 -7 11 2 22 12 15 13 14 16 -1 2 -10 1 -20 -1 -23z m1763 13 c0 -9 -9 -14
-20 -13 -20 1 -25 9 -13 20 12 12 33 7 33 -7z m6089 -45 c7 -5 9 -11 5 -14
-10 -5 -54 9 -54 18 0 8 34 6 49 -4z m-7891 -7 c28 -6 29 -33 2 -62 -28 -30
-68 -29 -76 2 -12 48 17 72 74 60z m7309 -46 c-3 -7 -5 -2 -5 12 0 14 2 19 5
13 2 -7 2 -19 0 -25z m53 -18 c0 -5 -4 -10 -10 -10 -5 0 -10 5 -10 10 0 6 5
10 10 10 6 0 10 -4 10 -10z m-1703 -62 c50 -24 84 -53 157 -132 52 -56 101
-118 109 -138 12 -27 23 -39 44 -43 15 -3 44 -14 63 -24 65 -34 78 -140 24
-198 -18 -20 -22 -22 -16 -8 5 11 6 29 1 40 -7 19 -8 19 -8 -2 -1 -21 -21 -44
-21 -24 0 6 -5 11 -11 11 -6 0 -9 -6 -6 -14 3 -9 -4 -21 -19 -30 -13 -9 -24
-12 -24 -6 0 5 5 10 10 10 6 0 10 7 10 15 0 18 -12 19 -28 3 -7 -7 -16 -8 -24
-2 -23 17 -68 34 -68 25 0 -4 12 -13 26 -20 15 -6 24 -14 21 -18 -4 -3 -12 -1
-20 5 -19 16 -109 53 -102 42 3 -5 1 -18 -4 -27 -6 -10 -11 -13 -11 -6 0 6 -9
15 -21 18 -11 4 -36 20 -55 37 -27 24 -37 28 -48 19 -7 -6 -45 -12 -82 -12
-54 0 -90 8 -164 34 -113 41 -331 134 -344 147 -25 25 65 69 172 86 35 5 42
10 42 28 0 45 34 120 70 156 44 44 88 58 189 59 64 1 82 -3 138 -31z m-7259
-99 c3 -64 4 -66 36 -77 54 -20 88 -64 94 -121 9 -99 -34 -143 -140 -142 -68
0 -119 26 -159 81 -13 16 -28 30 -35 30 -17 0 -27 31 -14 44 5 5 10 16 10 24
0 8 9 25 20 39 11 14 18 29 15 33 -2 4 7 5 22 2 16 -3 24 -1 20 5 -4 6 7 9 26
8 55 -4 77 10 77 49 0 44 -9 66 -26 66 -8 0 -14 4 -14 8 0 16 14 23 40 20 24
-3 25 -7 28 -69z m3385 54 c-7 -2 -19 -2 -25 0 -7 3 -2 5 12 5 14 0 19 -2 13
-5z m-18 -23 c-3 -5 -10 -10 -16 -10 -5 0 -9 5 -9 10 0 6 7 10 16 10 8 0 12
-4 9 -10z m2195 0 c0 -5 -7 -7 -15 -4 -11 5 -15 -1 -15 -22 0 -32 -5 -30 -14
9 -6 24 -4 27 19 27 14 0 25 -4 25 -10z m235 -83 l0 -52 73 1 72 2 0 -58 c0
-48 5 -64 25 -88 l24 -29 -29 -46 c-29 -47 -73 -77 -110 -77 -28 0 -36 26 -16
49 17 18 23 134 8 158 -5 8 -26 5 -77 -13 -87 -29 -104 -30 -114 -3 -7 19 -11
16 -40 -35 -35 -63 -76 -88 -133 -84 -47 4 -117 72 -129 125 -11 52 -1 81 42
118 31 26 38 27 106 23 66 -5 74 -8 98 -36 15 -18 33 -32 41 -32 8 0 14 -10
14 -25 0 -22 4 -25 40 -25 l40 0 0 80 c0 76 1 80 28 94 15 8 29 12 32 9 2 -2
5 -28 5 -56z m-4678 33 c31 -24 75 -26 108 -4 33 22 32 1 -1 -25 -37 -29 -63
-26 -109 14 -42 36 -41 49 2 15z m5101 -16 c24 -28 29 -83 11 -131 -13 -34
-57 -82 -86 -93 -21 -9 -90 4 -106 19 -9 9 30 169 49 199 31 48 92 50 132 6z
m-5168 -25 c0 -6 -4 -7 -10 -4 -5 3 -10 11 -10 16 0 6 5 7 10 4 6 -3 10 -11
10 -16z m2580 -84 c0 -53 4 -85 10 -85 16 0 60 51 60 69 0 13 10 16 48 15 89
-3 145 -20 174 -54 34 -41 39 -72 22 -131 -42 -140 -209 -142 -305 -3 -16 24
-44 50 -60 57 l-31 12 20 25 c24 32 39 145 20 153 -10 4 -10 8 2 16 34 24 40
13 40 -74z m-2535 27 c-6 -7 -35 18 -35 31 0 5 9 2 20 -8 11 -10 18 -20 15
-23z m2181 7 c14 -16 19 -37 20 -88 1 -36 2 -71 3 -77 2 -19 64 -42 88 -33 21
7 23 15 22 71 -1 65 17 181 20 124 1 -23 5 -27 20 -23 11 3 26 -4 37 -17 l19
-21 6 40 6 40 2 -45 c1 -25 5 -62 10 -82 8 -33 7 -38 -10 -38 -13 0 -20 -10
-25 -34 -9 -50 12 -104 50 -127 18 -11 25 -19 15 -19 -9 0 -22 -7 -29 -15 -22
-26 -42 -17 -109 54 -66 69 -67 70 -110 64 -62 -8 -105 17 -127 73 -9 24 -23
49 -30 55 -22 18 -16 63 11 93 31 33 83 36 111 5z m-2250 -108 c14 -6 31 -11
39 -11 15 0 20 -23 16 -69 -1 -13 3 -27 10 -31 13 -8 4 -30 -12 -30 -6 0 -7 5
-3 12 4 7 3 8 -4 4 -19 -11 -14 -33 8 -39 20 -5 20 -12 18 -154 l-3 -148 -47
-8 c-81 -15 -78 -23 -78 203 0 118 5 228 13 268 7 42 13 57 15 41 2 -17 12
-31 28 -38z m363 -136 c7 -71 11 -177 9 -235 l-3 -105 -48 2 c-80 2 -77 -4
-77 150 0 126 2 140 20 156 26 22 25 63 -1 106 -11 18 -18 35 -16 37 2 2 23
14 48 27 54 29 52 35 68 -138z m140 70 c58 -66 36 -116 -51 -117 -77 -1 -93
65 -31 119 21 18 41 32 44 33 4 0 21 -16 38 -35z m-2378 -95 c-1 -60 1 -71 16
-76 10 -3 34 -12 54 -21 32 -13 40 -13 65 0 21 11 35 12 58 4 49 -16 54 -24
66 -100 6 -40 16 -91 22 -114 9 -37 8 -45 -12 -73 -28 -40 -38 -31 -51 51 -6
35 -11 64 -12 65 -1 1 -16 4 -32 7 -27 5 -32 2 -44 -23 -7 -16 -27 -38 -44
-49 -28 -17 -41 -18 -105 -11 -73 8 -91 16 -127 56 -16 19 -35 24 -100 30 -49
4 -87 13 -98 22 -9 8 -20 12 -23 9 -10 -10 -17 -133 -10 -162 7 -26 9 -27 55
-21 43 6 49 4 54 -14 6 -23 42 -26 96 -6 24 9 53 10 99 4 52 -7 68 -6 88 7 31
20 30 14 -6 -37 -17 -23 -28 -48 -26 -55 8 -20 -41 -51 -101 -64 -70 -14 -164
-5 -220 22 -54 26 -126 106 -141 157 -11 35 -16 40 -51 46 -22 3 -46 9 -55 12
-10 4 -16 1 -16 -9 0 -44 -85 -21 -130 36 -21 26 -26 44 -29 111 -3 68 -1 82
15 93 24 18 58 16 97 -3 40 -21 47 -31 47 -74 0 -88 70 -130 128 -77 18 17 22
30 20 61 -3 38 -2 39 43 55 61 21 82 39 76 67 -2 13 0 29 4 36 6 8 9 -1 10
-27 0 -22 6 -62 13 -90 11 -51 17 -54 69 -46 11 2 9 141 -3 141 -16 0 -12 47
6 64 8 9 20 16 25 16 5 0 9 -42 9 -94 0 -88 1 -94 19 -89 11 3 33 22 50 44 24
29 41 40 71 45 l40 7 0 80 c0 61 3 78 11 70 7 -7 11 -41 10 -83z m-631 64 c0
-2 -7 -4 -15 -4 -8 0 -15 4 -15 10 0 5 7 7 15 4 8 -4 15 -8 15 -10z m30 -18
c0 -2 -7 -7 -16 -10 -8 -3 -12 -2 -9 4 6 10 25 14 25 6z m9600 -68 c30 -17 93
-63 140 -102 47 -40 113 -92 148 -116 45 -32 62 -50 62 -67 0 -21 -4 -22 -35
-17 -21 3 -35 1 -35 -5 0 -6 -6 -8 -14 -5 -8 3 -52 -2 -98 -10 -47 -9 -101
-16 -122 -16 -36 0 -37 -1 -31 -30 4 -19 1 -37 -8 -50 l-14 -20 -21 21 c-12
11 -22 17 -22 15 0 -15 -157 85 -232 147 -52 44 -56 54 -32 72 15 11 15 17 0
79 -10 37 -14 76 -11 86 6 18 39 32 130 54 47 11 141 -6 195 -36z m-1193 -74
l1 -59 -13 50 c-9 35 -14 42 -15 25 -1 -14 -4 -19 -7 -12 -3 7 -1 20 3 30 4 9
6 21 5 25 -1 5 4 7 11 5 8 -3 14 -26 15 -64z m99 41 c-3 -8 -1 -15 4 -15 6 0
10 -5 10 -11 0 -5 -4 -7 -10 -4 -6 4 -10 -17 -9 -57 1 -61 1 -62 11 -25 6 20
14 37 20 37 5 0 8 -17 6 -37 -3 -35 -6 -39 -46 -52 -40 -12 -92 -9 -92 7 0 4
17 7 37 7 l38 0 2 75 c1 41 2 78 2 83 1 4 8 7 17 7 10 0 14 -6 10 -15z m374
-5 c0 -5 -5 -10 -11 -10 -5 0 -7 5 -4 10 3 6 8 10 11 10 2 0 4 -4 4 -10z
m-10020 -10 c0 -5 -5 -10 -11 -10 -5 0 -7 5 -4 10 3 6 8 10 11 10 2 0 4 -4 4
-10z m9500 -1 c0 -5 -4 -7 -10 -4 -5 3 -10 1 -10 -6 0 -7 -3 -10 -6 -6 -8 7 4
27 17 27 5 0 9 -5 9 -11z m-9630 -12 c19 -1 51 2 70 6 21 4 29 3 20 -2 -12 -7
-427 -99 -480 -106 -8 -1 -22 -5 -30 -8 -57 -21 -295 -67 -298 -58 -2 6 -11
11 -20 10 -11 0 -12 -2 -4 -6 24 -9 12 -20 -30 -27 -24 -3 -53 -9 -65 -12 -20
-6 -23 -3 -23 24 0 28 4 32 38 41 82 22 187 41 200 36 8 -3 10 0 6 6 -5 9 4
10 31 5 22 -4 35 -4 31 2 -7 12 51 20 140 18 53 -1 70 2 67 11 -4 9 3 10 29 3
18 -6 40 -10 48 -9 8 0 0 5 -18 10 -21 6 -30 14 -26 21 6 9 9 9 11 1 3 -7 11
-9 19 -6 7 3 28 0 45 -6 28 -10 30 -9 18 6 -13 15 -12 15 10 4 17 -9 26 -10
34 -2 8 8 6 11 -8 12 -16 1 -15 3 5 9 14 4 34 8 45 8 16 0 15 -2 -5 -8 -24 -8
-24 -8 5 -9 17 0 37 4 45 9 13 9 13 11 0 21 -11 8 -6 9 20 4 19 -4 51 -7 70
-8z m9544 -14 c27 -20 41 -24 43 -15 3 6 8 12 12 12 8 0 6 -148 -2 -156 -10
-11 -116 -21 -167 -17 -64 5 -80 20 -80 75 0 51 25 86 74 109 56 24 74 23 120
-8z m-772 5 c-69 -87 -124 -179 -148 -250 -40 -121 -100 -171 -138 -116 -22
31 -20 40 17 100 18 29 39 66 47 83 24 47 127 151 173 174 48 24 64 27 49 9z
m1483 -6 c-3 -3 -11 0 -18 7 -9 10 -8 11 6 5 10 -3 15 -9 12 -12z m-13 -19
c24 -22 33 -77 19 -122 -15 -53 -73 -125 -112 -141 -28 -12 -36 -11 -61 3 -35
20 -101 22 -117 4 -6 -8 -14 -31 -19 -53 -11 -55 -65 -90 -152 -100 -44 -4
-71 -13 -83 -25 -20 -21 -26 -23 -46 -10 -11 7 -11 14 0 46 13 34 12 38 -6 51
-26 19 -52 18 -64 -3 -8 -14 -14 -16 -27 -7 -10 6 -20 16 -22 23 -3 10 14 12
76 10 63 -3 84 0 103 14 18 13 19 15 4 8 -17 -8 -21 -6 -21 10 0 23 28 25 46
4 16 -20 54 -19 71 1 15 18 14 139 -1 179 -17 44 -12 56 30 72 22 9 40 20 40
25 0 4 4 8 9 8 15 0 24 -82 12 -111 -14 -38 -3 -67 31 -85 28 -15 32 -14 69
10 38 25 39 28 39 81 0 81 20 123 62 128 48 6 100 -2 120 -20z m-4113 7 c9 0
31 -19 49 -42 25 -32 32 -52 32 -84 l0 -43 48 6 c43 5 50 2 77 -24 17 -17 43
-49 58 -72 15 -23 42 -48 59 -55 27 -12 37 -11 72 4 32 14 73 19 181 22 131 3
140 4 143 23 2 15 1 17 -6 6 -7 -10 -11 -10 -17 -1 -14 23 11 31 58 20 29 -8
47 -18 50 -30 4 -17 22 -18 228 -19 164 -1 230 2 245 11 74 44 93 50 183 59
95 10 97 10 151 -19 67 -35 97 -76 105 -146 12 -93 8 -100 -55 -106 -34 -3
-70 -14 -94 -29 -42 -26 -127 -34 -134 -13 -5 17 -64 15 -90 -4 -19 -13 -37
-15 -93 -9 -77 8 -94 -5 -33 -25 24 -8 60 -10 103 -6 84 9 85 9 152 1 50 -7
65 -4 125 23 38 16 103 35 144 41 41 6 84 14 96 17 17 4 24 -1 34 -27 17 -39
67 -99 84 -99 6 0 25 21 41 47 20 31 52 60 95 87 56 35 73 41 120 41 131 -1
245 -111 200 -194 -6 -12 -5 -29 3 -50 10 -27 9 -37 -8 -67 -32 -59 -71 -82
-140 -84 -115 -3 -167 19 -145 61 17 31 10 45 -9 20 -11 -15 -24 -22 -34 -18
-15 6 -58 -5 -104 -26 -12 -5 -30 -7 -40 -3 -13 5 -15 4 -7 -4 6 -6 39 -13 74
-16 44 -4 74 -13 102 -32 73 -48 229 -39 293 16 25 22 46 30 92 35 33 4 97 20
142 37 45 16 86 30 91 30 5 0 46 -25 90 -55 44 -30 86 -55 93 -55 7 0 29 16
48 36 56 59 82 68 194 67 63 -1 115 -6 142 -16 50 -19 42 -25 114 107 54 99
82 126 113 109 13 -7 8 -20 -36 -83 -28 -41 -47 -75 -42 -77 24 -8 114 -64
113 -71 0 -4 -19 -23 -43 -42 -41 -34 -42 -35 -22 -47 12 -7 25 -12 29 -13 9
0 49 65 47 76 -1 4 2 10 8 13 5 3 28 43 52 89 54 104 108 155 198 182 79 25
106 12 41 -18 -24 -11 -59 -35 -77 -52 -48 -47 -126 -170 -114 -182 6 -6 0
-31 -15 -66 -13 -31 -27 -65 -30 -74 -3 -10 -9 -18 -14 -18 -11 0 73 -122 87
-127 6 -2 21 31 33 73 30 103 132 304 170 337 33 27 97 43 133 32 13 -4 33
-17 46 -28 l22 -20 0 50 c0 62 25 98 81 114 21 7 44 18 49 24 9 11 29 130 30
178 0 9 8 17 18 17 15 0 17 -10 14 -97 -2 -86 0 -101 18 -123 30 -38 40 -12
40 104 0 63 4 96 9 90 6 -5 12 -20 15 -34 2 -14 9 -45 15 -70 6 -25 11 -82 11
-126 0 -80 1 -82 26 -88 15 -4 27 -6 29 -4 1 2 10 27 19 56 21 64 40 84 75 80
24 -3 26 -7 29 -63 2 -33 -2 -84 -8 -113 -10 -47 -16 -56 -46 -68 -19 -8 -34
-18 -34 -22 0 -20 44 -75 75 -93 34 -21 35 -22 35 -86 l0 -65 -27 7 c-16 4
-36 7 -46 7 -13 -1 -16 3 -10 11 12 18 9 52 -5 50 -7 -2 -12 4 -12 12 0 11
-12 15 -45 15 -25 0 -71 9 -103 21 -31 11 -63 21 -69 22 -7 0 -13 7 -13 15 0
8 6 12 14 9 26 -10 12 51 -20 84 l-29 32 35 -7 c55 -9 64 3 68 86 3 88 -4 104
-44 91 -22 -7 -33 -21 -47 -59 -10 -27 -25 -57 -34 -66 -11 -12 -14 -28 -10
-51 5 -30 -6 -70 -15 -57 -2 3 -19 29 -38 57 -39 58 -57 71 -33 22 31 -61 0
-180 -98 -383 -33 -69 -73 -118 -136 -166 -37 -29 -56 -80 -29 -80 28 0 17
-20 -11 -21 -25 0 -26 -1 -8 -9 11 -4 24 -4 30 1 5 5 23 9 40 9 30 0 47 7 128
53 l32 18 -30 -6 c-16 -4 -44 -13 -60 -21 -57 -27 -95 -34 -95 -18 0 8 8 14
18 14 10 0 22 4 28 10 17 17 156 70 183 70 20 0 23 -2 11 -10 -10 -6 -11 -10
-3 -10 7 0 18 9 25 20 14 23 175 106 197 101 7 -1 10 2 7 7 -6 10 42 33 75 37
8 1 24 7 35 13 38 21 126 -64 140 -136 6 -29 5 -30 -68 -52 -40 -12 -132 -46
-204 -76 -196 -81 -267 -105 -276 -91 -4 7 -8 8 -8 3 0 -5 -7 -3 -15 4 -8 7
-16 10 -16 6 -1 -3 -3 -10 -4 -16 -1 -5 -3 -14 -4 -20 0 -6 -16 -7 -37 -4 -29
4 -36 3 -31 -8 3 -10 -9 -20 -39 -31 -24 -9 -44 -14 -44 -11 0 3 13 10 30 15
25 9 28 14 20 30 -6 10 -16 19 -22 19 -9 0 -9 -3 0 -12 23 -23 -56 -49 -108
-35 -14 4 -19 4 -12 1 6 -3 12 -11 12 -16 0 -6 -3 -9 -6 -5 -7 7 -34 -15 -28
-24 2 -3 -3 -6 -11 -6 -9 0 -14 7 -13 16 2 9 -7 20 -19 26 -27 11 -29 27 -7
46 14 11 13 14 -10 26 -26 13 -36 43 -15 43 5 0 7 5 4 10 -4 6 -11 8 -16 5 -5
-4 -5 5 1 20 14 37 12 77 -6 131 -8 25 -18 72 -22 105 -7 56 -8 58 -28 46 -78
-45 -112 -59 -181 -78 l-79 -20 -122 50 c-131 53 -252 119 -288 158 l-21 23
-6 -30 c-5 -22 -13 -31 -34 -36 -15 -3 -34 -7 -40 -10 -15 -4 -17 -34 -3 -34
6 0 10 7 10 15 0 10 9 15 28 14 26 0 26 -1 5 -9 -27 -11 -30 -30 -5 -30 14 0
15 2 2 10 -13 8 -12 10 4 10 15 0 17 -5 12 -30 -3 -19 -2 -29 4 -25 6 4 10
-21 10 -65 0 -60 -3 -71 -15 -66 -11 4 -15 -2 -15 -24 0 -23 -5 -30 -19 -30
-10 0 -24 -7 -31 -15 -18 -21 -38 -19 -140 15 -102 34 -110 35 -110 17 0 -17
274 -102 292 -91 4 3 8 -1 8 -9 0 -7 11 -19 25 -25 30 -14 32 -28 5 -42 -17
-9 -20 -21 -20 -86 0 -72 2 -77 30 -102 16 -15 30 -35 30 -45 0 -35 21 -57 65
-68 39 -10 44 -15 47 -42 2 -25 9 -32 36 -39 17 -5 32 -13 32 -17 0 -5 2 -16
6 -24 4 -10 -6 -16 -35 -21 -22 -3 -42 -10 -45 -14 -3 -5 7 -31 20 -59 42 -85
42 -178 -1 -143 -12 10 -19 10 -27 2 -7 -7 -22 -12 -34 -12 -12 0 -24 -4 -26
-9 -4 -11 -74 -51 -198 -113 -110 -55 -135 -67 -110 -49 12 8 12 13 2 23 -20
20 -14 38 15 38 21 0 24 3 15 12 -7 7 -12 18 -12 26 0 12 3 12 15 2 18 -15 18
-10 5 24 -7 20 -6 26 4 26 20 0 49 47 33 53 -12 6 27 11 52 7 8 -1 12 4 8 13
-4 11 0 13 13 10 15 -4 18 -1 15 17 -3 16 0 20 11 16 9 -4 12 -2 8 5 -5 8 3
10 25 7 32 -5 43 5 16 16 -8 3 -26 1 -38 -5 -19 -9 -34 -5 -81 19 -61 31 -56
31 -206 -8 -19 -5 -74 -16 -122 -26 -80 -15 -87 -18 -77 -35 5 -11 16 -19 23
-19 15 0 46 -58 46 -87 0 -10 3 -28 6 -41 6 -20 12 -23 43 -20 21 2 43 12 53
23 10 11 17 15 18 9 0 -14 -66 -74 -74 -67 -3 3 -8 -1 -12 -10 -3 -9 -19 -19
-35 -22 -16 -4 -32 -11 -35 -17 -5 -7 0 -9 14 -6 12 4 20 2 16 -3 -3 -5 -15
-9 -26 -9 -25 0 -68 -37 -68 -57 0 -7 -4 -21 -9 -31 -6 -9 -12 -30 -16 -45 -4
-20 -9 -26 -18 -20 -7 5 -32 17 -57 26 -25 9 -61 30 -80 47 -19 16 -38 30 -42
30 -4 0 -2 14 3 32 5 19 5 36 0 41 -8 8 -41 -110 -41 -148 0 -32 110 -126 222
-189 30 -17 31 -19 13 -27 -11 -4 -39 -8 -61 -8 -49 -1 -54 -9 -54 -91 0 -51
3 -60 21 -65 11 -4 18 -9 15 -12 -3 -4 -1 -12 5 -19 6 -7 13 -34 15 -59 l4
-45 -578 0 -579 0 -7 46 c-12 93 -9 113 22 121 15 5 237 8 494 8 256 0 464 4
461 8 -3 5 3 7 13 5 30 -5 32 75 3 126 -13 22 -42 85 -65 140 -31 75 -43 94
-48 79 -6 -20 -71 -47 -88 -37 -11 7 -10 215 1 233 6 9 16 11 32 6 l24 -7 -23
24 c-22 24 -23 31 -23 239 -1 164 -4 210 -13 195 -55 -94 -139 -165 -223 -191
-113 -36 -293 -7 -395 63 -48 33 -88 35 -99 6 -6 -16 -8 -15 -8 7 -1 27 24 47
32 26 2 -7 8 -8 13 -4 5 4 4 11 -2 15 -5 4 -20 20 -32 36 -20 26 -22 26 -22 8
0 -11 8 -23 18 -25 13 -4 11 -5 -5 -6 -18 -1 -23 4 -23 23 0 33 -10 57 -21 50
-5 -3 -9 -12 -9 -20 0 -8 5 -12 10 -9 6 3 10 0 10 -9 0 -8 -6 -17 -12 -20 -10
-5 -10 -7 0 -12 6 -3 12 -10 12 -15 0 -6 -5 -7 -11 -3 -8 5 -9 -5 -4 -33 5
-31 2 -44 -10 -57 -14 -13 -17 -40 -18 -138 l-2 -122 33 -19 c26 -15 36 -17
42 -8 10 18 19 -82 13 -164 -6 -90 -11 -117 -23 -110 -6 3 -10 0 -11 -7 0 -10
-2 -10 -6 0 -2 6 -11 12 -18 12 -21 0 -109 31 -115 41 -5 7 -43 -19 -99 -69
-16 -15 -20 -22 -9 -19 9 3 19 -1 22 -9 3 -8 1 -12 -4 -9 -5 3 -20 0 -32 -7
-13 -7 -27 -11 -31 -10 -5 1 -22 -7 -39 -20 -29 -20 -30 -22 -12 -30 14 -6 13
-7 -7 -3 -27 5 -55 -15 -41 -30 4 -4 0 -6 -8 -3 -17 5 -40 -33 -40 -68 0 -13
5 -24 12 -24 6 0 9 -2 6 -5 -3 -3 -16 -1 -29 3 -15 6 -30 5 -40 -1 -13 -8 -21
-6 -33 5 -13 14 -14 17 -1 22 21 8 19 23 -5 36 -14 7 -20 7 -20 0 0 -5 7 -10
15 -10 8 0 15 -4 15 -10 0 -14 -7 -13 -36 7 -19 12 -22 18 -12 24 16 10 11 14
-26 23 -28 7 -29 6 -22 -25 3 -17 6 -38 6 -45 0 -8 7 -14 15 -14 8 0 15 5 15
10 0 6 11 0 24 -12 29 -28 27 -32 -9 -18 -43 16 -42 3 1 -16 22 -9 47 -20 56
-25 10 -5 20 -5 23 1 3 6 15 10 26 10 10 0 19 5 19 10 0 6 5 10 11 10 5 0 7
-4 4 -10 -4 -6 5 -10 20 -10 17 0 24 4 19 11 -5 8 1 10 17 6 13 -3 33 -1 44 4
18 8 18 8 -5 7 -47 -2 -70 2 -70 13 0 5 4 8 8 5 7 -4 121 -10 149 -7 12 1 12
18 0 38 -11 18 9 25 23 8 8 -10 21 -13 33 -9 17 5 18 4 6 -8 -7 -8 -22 -13
-32 -10 -11 3 -17 0 -15 -8 4 -17 -71 -70 -97 -69 -17 1 -17 2 -2 6 9 2 17 9
17 15 0 6 -7 7 -17 3 -10 -4 -27 -8 -38 -10 -31 -4 -32 -6 -5 -16 17 -5 -3 -7
-60 -6 -57 2 -98 9 -125 22 -36 16 -71 19 -356 20 -174 1 -322 5 -328 9 -7 5
-11 46 -11 113 0 98 2 107 26 135 14 17 23 37 20 44 -3 8 0 14 6 14 13 0 4
218 -9 231 -5 5 -7 -37 -5 -92 4 -120 -3 -127 -78 -75 -63 43 -122 48 -185 16
l-40 -21 -17 21 c-9 11 -19 38 -23 60 -4 22 -14 44 -23 50 -15 8 -15 10 3 11
11 1 24 1 29 0 15 -3 36 21 36 40 0 18 -6 19 -55 14 -34 -3 -55 -1 -55 5 0 5
19 10 43 11 23 0 83 3 133 5 86 5 113 0 187 -31 12 -5 17 -3 17 9 0 11 7 16
18 14 14 -2 18 6 20 40 3 37 0 44 -17 49 -20 5 -21 12 -21 148 0 112 -3 145
-14 155 -11 8 -76 11 -245 8 -126 -2 -232 0 -235 3 -3 3 -9 107 -14 232 -9
227 -9 227 -41 291 -78 159 -259 249 -438 219 -132 -23 -253 -112 -307 -225
-27 -56 -27 -59 -27 -287 l0 -231 -214 0 c-194 0 -215 -2 -223 -17 -5 -10 -12
-106 -16 -213 -4 -107 -9 -220 -12 -250 -7 -75 7 -110 44 -110 16 0 43 -5 61
-11 25 -9 36 -8 56 5 13 9 33 16 44 16 19 0 19 -1 -2 -23 -91 -95 -118 -130
-105 -138 9 -6 7 -9 -9 -9 -14 0 -23 -6 -23 -15 0 -11 -12 -15 -45 -15 l-45 0
0 -100 0 -100 -327 0 -328 0 -149 43 c-82 23 -151 47 -153 52 -2 6 28 37 67
69 l71 58 57 -7 57 -6 137 95 c75 52 151 102 167 112 36 21 39 30 11 39 -11 4
-20 15 -20 26 0 17 -9 13 -62 -27 -35 -27 -65 -51 -68 -54 -3 -3 -42 -36 -87
-73 -80 -65 -83 -67 -128 -61 -25 4 -45 11 -45 17 0 6 19 7 48 3 l49 -6 77 70
c85 78 219 180 235 180 6 0 11 5 11 12 0 6 3 9 6 5 4 -3 29 17 56 45 85 87
103 77 -362 196 -223 57 -423 105 -445 108 -45 6 -29 17 -234 -150 -67 -54
-137 -112 -155 -130 l-34 -31 -33 27 c-18 15 -52 35 -76 44 -40 16 -43 19 -43
55 0 34 3 39 28 44 45 10 56 20 68 61 10 35 15 39 59 50 26 7 54 19 61 26 8 8
13 54 16 133 3 119 3 119 -21 125 -44 10 -34 27 22 33 29 4 71 13 92 20 35 12
41 19 48 57 5 24 6 63 2 87 -8 53 -36 74 -124 93 l-59 12 -6 57 c-14 121 -92
224 -211 277 -64 29 -86 49 -42 39 13 -3 32 2 46 14 l24 19 -21 27 c-20 25
-22 26 -22 7 0 -29 -27 -35 -81 -17 -34 12 -75 15 -141 13 l-93 -3 -3 58 c-2
31 -4 57 -5 58 -1 0 -51 3 -112 6 -60 2 -117 9 -126 14 -9 5 -20 25 -23 45 -5
21 -23 53 -47 79 -21 23 -39 45 -39 48 0 12 65 1 76 -12 9 -11 14 -10 27 10
10 13 17 36 17 51 l0 29 138 -3 137 -3 105 53 c117 59 198 74 278 53 35 -10
42 -16 42 -36 0 -13 5 -27 11 -31 6 -4 27 -41 46 -83 l35 -76 36 40 c20 22 49
55 64 73 23 27 34 33 60 30 23 -2 32 -8 30 -18 -5 -19 18 -91 35 -111 7 -8 13
-23 13 -31 0 -9 8 -33 17 -54 9 -22 17 -42 17 -45 1 -3 9 -13 18 -23 33 -33
232 -20 308 19 27 14 57 92 46 120 -5 13 -9 12 -26 -5 -11 -11 -27 -20 -35
-20 -8 0 -33 -18 -56 -40 -41 -40 -41 -40 -70 -23 -26 16 -29 16 -47 0 -25
-22 -35 -21 -47 5 -6 12 -19 26 -30 32 -27 15 -35 27 -35 57 0 14 -7 34 -15
45 -8 10 -15 28 -15 40 0 11 -3 24 -7 27 -11 12 -43 110 -43 134 0 13 5 23 10
23 6 0 10 7 10 16 0 26 63 81 105 93 96 26 179 8 254 -54 l31 -27 372 1 c205
1 722 3 1150 6 498 3 785 2 802 -5 14 -5 26 -16 26 -24 0 -13 74 -70 161 -124
20 -12 60 -25 89 -29 51 -8 54 -10 63 -43 5 -19 14 -38 20 -42 7 -4 87 -8 179
-8 l166 0 30 30 c17 17 30 31 29 31 -12 8 -64 5 -76 -4 -11 -9 -15 -9 -18 1
-6 15 -30 16 -35 0 -3 -8 -39 -11 -116 -11 -121 0 -110 -3 -179 60 -7 6 -13
17 -13 23 0 6 -3 9 -8 6 -4 -2 -6 12 -6 32 1 20 -2 44 -7 53 -15 29 61 128
119 156 30 15 33 19 28 47 -4 17 -20 53 -37 81 -29 46 -30 50 -13 62 10 8 25
11 32 8 8 -3 21 -5 31 -5z m-269 -30 c0 -5 -2 -10 -4 -10 -3 0 -8 5 -11 10 -3
6 -1 10 4 10 6 0 11 -4 11 -10z m-6263 -6 c-3 -3 -12 -4 -19 -1 -8 3 -5 6 6 6
11 1 17 -2 13 -5z m6287 -25 c-3 -5 -10 -7 -15 -3 -5 3 -7 10 -3 15 3 5 10 7
15 3 5 -3 7 -10 3 -15z m-33 -9 c5 0 9 -10 9 -21 0 -20 -2 -20 -22 -7 -28 19
-38 44 -14 35 10 -4 22 -7 27 -7z m-3424 -132 c23 -15 46 -28 52 -28 5 0 22
-5 38 -12 25 -10 15 -13 -102 -28 -71 -9 -137 -13 -146 -9 -9 5 -22 39 -33 89
-10 45 -20 89 -23 97 -6 15 139 -58 214 -109z m8018 112 c9 -14 -21 -18 -38
-5 -16 11 -15 13 8 13 14 0 28 -4 30 -8z m-4470 -10 c3 -6 -1 -7 -9 -4 -18 7
-21 14 -7 14 6 0 13 -4 16 -10z m-65 -20 c0 -5 -9 -14 -19 -19 -16 -9 -18 -8
-14 9 5 20 33 29 33 10z m602 -52 c-9 -9 -12 -7 -12 12 0 19 3 21 12 12 9 -9
9 -15 0 -24z m1703 4 c-2 -3 0 -13 6 -23 12 -23 -11 -73 -40 -89 -24 -12 -69
2 -78 26 -7 19 73 93 99 91 9 -1 15 -3 13 -5z m1269 -79 c8 -20 -10 -24 -27
-5 -15 16 -15 18 3 18 11 0 22 -6 24 -13z m-7252 -34 c15 -20 17 -30 9 -52
-24 -62 -111 -59 -111 5 0 38 35 80 64 76 10 -2 28 -14 38 -29z m468 16 c18
-22 15 -67 -6 -82 -41 -30 -75 -10 -83 48 l-7 44 42 2 c27 2 46 -3 54 -12z
m-1946 -29 c30 -64 10 -99 -30 -53 -13 15 -25 27 -27 27 -13 0 -58 -115 -63
-164 -6 -53 -6 -58 12 -54 13 2 20 13 21 33 2 17 8 55 14 85 11 54 11 54 29
32 10 -12 25 -22 34 -22 15 0 20 -12 29 -73 4 -23 0 -30 -19 -38 -14 -5 -48
-24 -78 -43 l-53 -34 -7 66 c-13 138 -2 198 44 244 40 39 73 37 94 -6z m10152
-51 c17 -16 14 -18 -10 -9 -9 3 -16 10 -16 15 0 13 9 11 26 -6z m-9517 -159
c35 -19 102 -91 132 -144 27 -48 37 -50 139 -27 36 8 74 14 85 15 20 0 115
-83 115 -101 0 -5 -26 -9 -59 -9 -63 0 -75 -8 -86 -53 -8 -30 0 -34 24 -13 10
9 52 17 106 21 l91 7 59 -53 58 -54 169 -1 c92 0 171 -4 175 -7 3 -4 -29 -7
-73 -7 -150 0 -276 -53 -374 -156 l-54 -57 -83 1 c-45 0 -87 3 -92 7 -6 3 -8
31 -4 68 l5 62 -150 -3 c-177 -5 -261 7 -350 49 -65 31 -219 153 -246 194 -20
30 -21 85 -3 128 21 48 91 107 128 107 59 0 131 -59 187 -156 39 -68 70 -102
107 -121 17 -8 40 -25 52 -36 13 -11 25 -18 27 -16 3 3 0 38 -6 79 -12 86 -60
198 -107 249 -17 18 -31 35 -31 37 0 9 33 3 59 -10z m-631 -303 c-5 -25 -28
-28 -28 -4 0 12 6 21 16 21 9 0 14 -7 12 -17z m9529 -5 c-3 -8 -6 -5 -6 6 -1
11 2 17 5 13 3 -3 4 -12 1 -19z m-9659 -93 c3 -97 2 -105 -15 -105 -11 0 -27
6 -37 13 -17 12 -17 14 -2 20 13 5 16 22 16 92 0 75 2 85 18 85 16 0 18 -12
20 -105z m-283 -27 c3 -13 12 -39 20 -58 7 -19 19 -50 25 -67 12 -31 15 -33
61 -33 l49 0 0 42 0 42 17 -24 c9 -13 19 -52 22 -89 l6 -66 46 -3 c28 -2 71 5
109 18 71 24 94 20 31 -6 -33 -13 -41 -21 -42 -43 0 -25 0 -25 -9 -3 -17 40
-53 25 -67 -28 -7 -27 -16 -36 -39 -41 -40 -9 -164 -10 -203 -3 -30 6 -31 8
-31 61 0 55 -1 56 -52 67 -15 3 -37 21 -50 39 -19 27 -23 45 -24 119 -2 97 -4
95 78 97 40 1 47 -2 53 -21z m10058 -38 c37 -19 67 -39 67 -45 0 -16 -63 -75
-81 -75 -29 0 -89 30 -89 45 0 29 22 116 29 113 4 -2 37 -19 74 -38z m-9347
-195 c20 -30 54 -32 185 -10 65 10 148 12 330 9 134 -3 258 -7 276 -10 31 -5
31 -5 21 -42 -7 -23 -8 -88 -4 -172 4 -74 10 -203 14 -285 5 -83 11 -156 16
-163 4 -6 23 -12 42 -12 24 0 34 -5 34 -15 0 -8 -8 -15 -18 -15 -19 0 -89 -43
-133 -82 -57 -50 -59 -61 -66 -279 -3 -112 -9 -207 -12 -211 -4 -5 -77 16
-161 46 -370 127 -459 175 -611 326 -76 75 -149 173 -137 185 7 7 371 65 409
65 36 0 77 29 66 47 -12 19 12 34 66 43 100 16 172 40 186 62 12 19 11 20 -6
14 -20 -8 -214 -56 -225 -56 -4 0 -7 37 -5 83 2 78 0 85 -31 134 -33 52 -34
53 -75 47 -23 -3 -52 -7 -64 -10 -18 -3 -26 4 -43 35 -11 22 -23 42 -27 44 -5
3 -91 -6 -193 -19 -102 -12 -189 -23 -195 -24 -5 0 -16 -4 -24 -9 -13 -8 -13
-12 -1 -27 27 -32 -52 -5 -89 31 -39 38 -36 69 7 89 62 28 92 52 92 72 0 17 8
23 38 28 42 6 92 39 92 61 0 30 43 44 137 44 88 1 93 0 109 -24z m8714 -255
c0 -5 -2 -10 -4 -10 -3 0 -8 5 -11 10 -3 6 -1 10 4 10 6 0 11 -4 11 -10z m4
-33 c4 4 4 0 1 -10 -6 -14 -9 -14 -21 -2 -18 17 -18 31 -1 16 8 -6 17 -8 21
-4z m136 -87 c-8 -5 -19 -10 -25 -10 -5 0 -3 5 5 10 8 5 20 10 25 10 6 0 3 -5
-5 -10z m-135 -120 c4 -6 -6 -10 -24 -10 -16 0 -33 5 -36 10 -4 6 6 10 24 10
16 0 33 -4 36 -10z m200 -32 c270 4 269 4 289 -55 20 -59 20 -164 1 -231 -15
-50 -63 -120 -134 -195 -38 -41 -143 -117 -160 -117 -7 0 -11 40 -11 113 0 61
-4 126 -9 143 -9 31 -70 134 -110 185 -23 30 -129 89 -160 89 -12 0 -21 5 -21
10 0 6 -7 10 -15 10 -18 0 -19 14 -4 42 10 19 16 20 68 12 31 -5 151 -8 266
-6z m-4209 -138 c169 0 193 -2 198 -16 4 -9 4 -19 1 -22 -3 -3 -105 -8 -225
-10 l-220 -4 0 24 c0 31 9 41 35 34 11 -3 106 -6 211 -6z m-1076 -25 c0 -22
-4 -25 -34 -25 -32 0 -35 -2 -33 -27 2 -28 1 -28 -57 -28 -42 0 -61 4 -64 14
-3 10 2 13 20 9 14 -3 33 1 42 7 13 10 7 13 -41 19 -41 5 -59 3 -65 -6 -8 -10
-11 -10 -15 0 -6 15 -59 16 -68 2 -4 -6 -2 -17 4 -24 6 -7 7 -16 2 -22 -5 -5
-11 -37 -13 -71 l-4 -63 40 -1 c67 -2 76 -4 73 -14 -2 -11 -15 -12 -70 -2 -29
4 -39 2 -44 -10 -9 -23 11 -30 87 -27 39 2 70 -2 70 -7 0 -5 -38 -9 -85 -9
-77 0 -102 -8 -75 -25 16 -10 1 -25 -26 -25 -13 0 -24 -4 -24 -10 0 -5 9 -10
19 -10 24 0 33 -13 25 -34 -4 -10 -18 -16 -36 -16 l-31 0 6 73 c4 39 9 132 13
205 6 121 8 132 26 132 11 0 16 5 13 10 -4 7 55 10 169 10 l176 0 0 -25z
m2575 -25 c3 -5 1 -10 -4 -10 -6 0 -11 5 -11 10 0 6 2 10 4 10 3 0 8 -4 11
-10z m-1405 -45 c0 -18 -5 -25 -20 -25 -11 0 -20 5 -20 10 0 6 3 9 8 9 19 -3
23 2 12 16 -10 12 -10 15 4 15 10 0 16 -9 16 -25z m-2582 -31 c103 -26 192
-51 199 -56 6 -5 9 -17 5 -26 -5 -15 -4 -15 12 1 21 21 16 20 68 2 24 -8 99
-26 168 -40 69 -15 131 -30 138 -34 8 -5 -37 -48 -132 -129 -193 -162 -208
-172 -267 -172 l-49 0 0 55 c0 49 -3 56 -27 68 -40 20 -129 49 -192 62 -51 10
-56 9 -79 -12 -21 -19 -32 -22 -61 -17 -20 4 -38 8 -40 10 -7 6 12 26 35 34
13 5 24 17 24 26 0 16 26 43 43 44 4 0 7 -7 7 -15 0 -8 4 -15 9 -15 11 0 41
28 41 38 0 4 14 13 30 20 17 8 30 19 30 25 0 7 16 23 35 36 40 27 44 40 15 42
-27 2 -33 3 -45 11 -5 3 -35 9 -65 13 -30 4 -63 14 -72 22 -19 17 -48 11 -48
-9 -1 -7 -21 -26 -46 -43 -25 -16 -53 -34 -61 -40 -8 -5 -32 -26 -53 -46 -21
-19 -57 -48 -79 -64 -35 -23 -46 -26 -71 -19 l-30 9 61 50 c34 27 67 54 73 60
94 87 186 154 214 155 12 0 107 -21 210 -46z m1180 31 c-3 -11 -58 -14 -58 -4
0 7 37 17 53 15 5 -1 7 -6 5 -11z m242 5 c0 -5 -10 -10 -22 -10 -19 0 -20 2
-8 10 19 13 30 13 30 0z m-3887 -37 c4 -21 10 -54 13 -73 7 -31 6 -34 -9 -22
-15 13 -47 93 -47 119 0 7 8 13 19 13 14 0 20 -10 24 -37z m4723 10 c-10 -10
-19 5 -10 18 6 11 8 11 12 0 2 -7 1 -15 -2 -18z m124 6 c0 -4 -16 -9 -35 -11
-24 -3 -35 0 -35 9 0 9 12 12 35 10 19 -1 35 -5 35 -8z m150 1 c0 -6 -29 -10
-65 -10 -85 0 -85 14 0 17 36 1 65 -2 65 -7z m107 -12 c-3 -8 -6 -5 -6 6 -1
11 2 17 5 13 3 -3 4 -12 1 -19z m-1447 -17 c0 -17 -20 -23 -48 -16 -20 5 -23
8 -11 16 19 12 59 12 59 0z m140 -1 c0 -5 -25 -10 -55 -10 -30 0 -55 5 -55 10
0 6 25 10 55 10 30 0 55 -4 55 -10z m107 -6 c2 -5 -15 -10 -37 -10 -37 -1 -48
5 -35 18 9 9 69 2 72 -8z m958 -14 c-8 -13 -85 -9 -85 4 0 7 16 10 45 8 25 -2
43 -8 40 -12z m123 3 c2 -8 -7 -13 -25 -14 -53 -2 -77 6 -56 19 19 12 76 8 81
-5z m122 7 c0 -5 -5 -10 -11 -10 -5 0 -7 5 -4 10 3 6 8 10 11 10 2 0 4 -4 4
-10z m-382 -7 c-10 -2 -26 -2 -35 0 -10 3 -2 5 17 5 19 0 27 -2 18 -5z m347
-3 c3 -5 -7 -8 -25 -7 -16 1 -30 5 -30 10 0 11 48 9 55 -3z m-1260 -20 c-3 -5
-19 -10 -36 -10 -16 0 -29 5 -29 10 0 6 16 10 36 10 21 0 33 -4 29 -10z m81 3
c-11 -11 -35 -12 -42 -2 -3 5 7 9 22 9 15 0 24 -3 20 -7z m-228 -15 c-3 -7
-13 -13 -23 -13 -10 0 -20 6 -22 13 -3 7 5 12 22 12 17 0 25 -5 23 -12z m267
2 c3 -5 -1 -10 -9 -10 -9 0 -16 5 -16 10 0 6 4 10 9 10 6 0 13 -4 16 -10z
m-1490 -10 c7 -12 -2 -12 -30 0 -19 8 -19 9 2 9 12 1 25 -3 28 -9z m1152 4
c-3 -3 -12 -4 -19 -1 -8 3 -5 6 6 6 11 1 17 -2 13 -5z m1397 -9 c-5 -11 1 -15
22 -14 25 0 26 2 9 9 -18 7 -19 8 -2 15 9 4 25 4 35 0 11 -5 13 -9 4 -12 -6
-3 -10 -9 -6 -14 3 -5 1 -9 -4 -9 -6 0 -9 -6 -8 -12 1 -16 -4 -18 -56 -18 -23
0 -38 3 -34 7 4 4 23 6 43 5 21 -2 34 0 30 5 -4 4 -28 8 -52 9 -56 3 -70 11
-54 30 16 20 80 19 73 -1z m-374 -5 c0 -5 -8 -10 -17 -10 -15 0 -16 2 -3 10
19 12 20 12 20 0z m140 1 c0 -5 -16 -9 -35 -9 -19 0 -38 4 -41 9 -3 5 13 9 35
9 23 0 41 -4 41 -9z m40 -1 c0 -5 -4 -10 -10 -10 -5 0 -10 5 -10 10 0 6 5 10
10 10 6 0 10 -4 10 -10z m60 0 c0 -5 -12 -10 -26 -10 -14 0 -23 4 -19 10 3 6
15 10 26 10 10 0 19 -4 19 -10z m40 0 c0 -5 -7 -10 -16 -10 -8 0 -12 5 -9 10
3 6 10 10 16 10 5 0 9 -4 9 -10z m3053 -6 c11 -11 -3 -24 -18 -18 -8 4 -12 10
-9 15 6 11 18 12 27 3z m-4240 -11 c-7 -2 -19 -2 -25 0 -7 3 -2 5 12 5 14 0
19 -2 13 -5z m97 -3 c0 -5 -11 -10 -25 -10 -14 0 -25 5 -25 10 0 6 11 10 25
10 14 0 25 -4 25 -10z m95 0 c-3 -5 -19 -10 -36 -10 -16 0 -29 5 -29 10 0 6
16 10 36 10 21 0 33 -4 29 -10z m-1688 -12 c-4 -14 -36 -12 -51 3 -6 5 3 9 23
9 22 0 31 -4 28 -12z m173 2 c0 -5 -9 -10 -19 -10 -11 0 -23 5 -26 10 -4 6 5
10 19 10 14 0 26 -4 26 -10z m1565 0 c-3 -5 -1 -10 6 -10 7 0 10 -2 7 -5 -7
-8 -38 5 -38 16 0 5 7 9 16 9 8 0 12 -4 9 -10z m3915 0 c0 -5 -7 -10 -15 -10
-8 0 -15 5 -15 10 0 6 7 10 15 10 8 0 15 -4 15 -10z m-3015 -10 c-3 -5 -14
-10 -23 -9 -14 0 -13 2 3 9 27 11 27 11 20 0z m75 1 c13 -1 13 -2 0 -11 -18
-12 -60 -13 -60 -2 0 14 10 20 28 17 9 -2 24 -4 32 -4z m-210 -11 c0 -5 -11
-10 -24 -10 -14 0 -28 5 -31 10 -4 6 7 10 24 10 17 0 31 -4 31 -10z m45 0 c-3
-5 -10 -10 -16 -10 -5 0 -9 5 -9 10 0 6 7 10 16 10 8 0 12 -4 9 -10z m35 6 c0
-3 -4 -8 -10 -11 -5 -3 -10 -1 -10 4 0 6 5 11 10 11 6 0 10 -2 10 -4z m2995
-6 c3 -5 -1 -10 -10 -10 -9 0 -13 5 -10 10 3 6 8 10 10 10 2 0 7 -4 10 -10z
m-5635 -21 c0 -5 -9 -9 -20 -9 -22 0 -27 16 -7 23 15 5 27 -1 27 -14z m1833
-6 c-3 -20 -2 -24 5 -15 8 12 13 12 31 1 15 -10 21 -24 21 -51 0 -21 -4 -38
-10 -38 -6 0 -7 -18 -3 -45 l6 -45 -37 0 c-20 0 -51 -7 -67 -16 -17 -8 -33
-13 -37 -10 -3 3 -13 -1 -22 -9 -15 -14 -19 -14 -31 2 -8 9 -9 14 -2 10 15
-10 44 20 37 38 -4 8 -11 15 -16 15 -6 0 -5 -8 3 -17 11 -16 11 -16 -1 -5 -8
7 -15 16 -15 20 -1 4 -5 18 -9 31 -6 18 -10 20 -17 10 -13 -22 -20 -4 -9 26 6
15 8 37 5 49 -5 15 -4 17 3 7 7 -10 14 -11 31 -1 12 6 34 12 49 13 15 1 27 8
27 16 0 11 39 40 56 41 3 0 4 -12 2 -27z m658 5 c24 -27 24 -27 -3 -20 -14 3
-19 1 -14 -6 5 -8 2 -10 -8 -6 -9 3 -16 13 -16 21 0 8 -4 11 -10 8 -6 -3 -7 1
-4 9 9 22 33 20 55 -6z m-752 5 l23 -6 -23 -12 c-26 -15 -49 -9 -49 11 0 15
12 17 49 7z m1211 -3 c0 -5 -5 -10 -11 -10 -5 0 -7 5 -4 10 3 6 8 10 11 10 2
0 4 -4 4 -10z m-120 -16 c0 -2 -9 -4 -20 -4 -11 0 -20 4 -20 9 0 5 9 7 20 4
11 -3 20 -7 20 -9z m-2840 -20 c0 -2 -19 -4 -41 -4 -35 0 -40 2 -30 14 10 11
19 12 42 4 16 -5 29 -12 29 -14z m100 16 c0 -5 -7 -7 -15 -4 -8 4 -15 8 -15
10 0 2 7 4 15 4 8 0 15 -4 15 -10z m1580 0 c0 -5 -15 -10 -34 -10 -19 0 -38 5
-41 10 -4 6 10 10 34 10 23 0 41 -4 41 -10z m900 -5 c0 -8 -6 -15 -14 -15 -17
0 -28 14 -19 24 12 12 33 6 33 -9z m130 11 c0 -2 -7 -7 -16 -10 -8 -3 -12 -2
-9 4 6 10 25 14 25 6z m57 -7 c-14 -8 -22 -8 -30 0 -8 8 -3 11 19 11 25 -1 27
-2 11 -11z m120 5 c-3 -3 -12 -4 -19 -1 -8 3 -5 6 6 6 11 1 17 -2 13 -5z
m2947 -3 c6 -8 -39 -21 -75 -21 -24 0 -25 17 -1 23 31 8 71 7 76 -2z m-5794
-32 c0 -14 -17 -10 -23 5 -4 10 -1 13 9 9 7 -3 14 -9 14 -14z m1436 -10 c9
-15 -13 -28 -37 -22 -33 9 -21 24 23 32 4 0 10 -4 14 -10z m75 -4 c0 -5 -9
-11 -21 -13 -20 -3 -27 8 -13 22 10 9 34 3 34 -9z m95 -15 c10 18 13 20 14 8
0 -30 -22 -69 -34 -58 -7 5 -17 5 -26 -2 -12 -8 -12 -9 3 -4 11 3 16 2 12 -4
-8 -13 -35 -13 -35 -1 0 6 10 17 23 26 l22 16 -22 -3 c-12 -2 -22 0 -23 5 -1
29 3 36 23 39 17 2 23 -3 25 -22 l4 -25 14 25z m-1659 6 c-24 -21 -54 -34 -65
-27 -23 14 11 38 55 38 17 0 19 -2 10 -11z m-150 -26 c127 -30 166 -41 161
-46 -6 -5 -247 52 -255 60 -9 9 -1 8 94 -14z m2833 10 c0 -5 -10 -10 -22 -10
-19 0 -20 2 -8 10 19 13 30 13 30 0z m107 -6 c-3 -3 -12 -4 -19 -1 -8 3 -5 6
6 6 11 1 17 -2 13 -5z m2943 2 c0 -3 -4 -8 -10 -11 -5 -3 -10 -1 -10 4 0 6 5
11 10 11 6 0 10 -2 10 -4z m55 -17 c4 -6 14 -8 22 -4 13 4 14 3 3 -10 -10 -12
-10 -15 0 -15 8 0 11 -3 7 -6 -3 -4 -20 5 -37 20 -20 16 -26 26 -16 26 8 0 18
-5 21 -11z m-4205 -24 c0 -8 -9 -15 -20 -15 -11 0 -20 7 -20 15 0 8 9 15 20
15 11 0 20 -7 20 -15z m4157 9 c-3 -3 -12 -4 -19 -1 -8 3 -5 6 6 6 11 1 17 -2
13 -5z m-4277 -8 c0 -3 -4 -8 -10 -11 -5 -3 -10 -1 -10 4 0 6 5 11 10 11 6 0
10 -2 10 -4z m4313 -10 c4 -10 1 -13 -8 -9 -8 3 -12 9 -9 14 7 12 11 11 17 -5z
m-5683 -16 l25 -8 -25 0 c-14 0 -36 4 -50 8 l-25 8 25 0 c14 0 36 -4 50 -8z
m1495 -10 c-3 -5 -13 -10 -21 -10 -8 0 -12 5 -9 10 3 6 13 10 21 10 8 0 12 -4
9 -10z m40 -10 c-3 -5 -11 -10 -16 -10 -6 0 -7 5 -4 10 3 6 11 10 16 10 6 0 7
-4 4 -10z m4155 0 c0 -5 -4 -10 -10 -10 -5 0 -10 5 -10 10 0 6 5 10 10 10 6 0
10 -4 10 -10z m-4090 -9 c0 -6 -4 -13 -10 -16 -5 -3 -10 1 -10 9 0 9 5 16 10
16 6 0 10 -4 10 -9z m-322 -29 c2 -8 -7 -12 -27 -12 -29 0 -46 11 -35 23 10
10 57 2 62 -11z m174 11 c-6 -2 -10 -9 -6 -14 6 -10 -30 -12 -63 -3 -41 11
-24 24 30 23 28 0 46 -3 39 -6z m85 -7 c0 -8 -6 -12 -14 -9 -7 3 -10 9 -7 14
8 14 21 11 21 -5z m3980 8 c-3 -3 -12 -4 -19 -1 -8 3 -5 6 6 6 11 1 17 -2 13
-5z m-47 -46 c0 -14 -35 0 -38 16 -3 15 -1 16 17 4 12 -7 21 -16 21 -20z
m1550 -10 c0 -10 3 -9 9 1 5 8 16 11 30 6 12 -3 18 -11 15 -17 -4 -6 1 -8 16
-3 15 5 20 4 16 -4 -4 -7 1 -11 13 -11 12 0 21 -5 21 -11 0 -5 4 -8 9 -4 5 3
21 -6 35 -20 29 -29 32 -37 14 -34 -7 1 -20 -1 -28 -4 -8 -3 -105 -24 -215
-47 -243 -49 -450 -94 -567 -122 l-87 -22 -53 41 c-29 22 -65 48 -80 58 -16 9
-28 20 -28 24 0 7 184 39 245 44 17 1 32 5 35 8 5 6 380 84 450 93 19 3 58 12
85 20 64 18 65 18 65 4z m-2971 -97 c-13 -11 -28 -20 -34 -21 -5 0 4 11 20 24
36 29 49 25 14 -3z m-1186 -12 c3 -13 1 -19 -6 -16 -15 5 -22 37 -9 37 5 0 12
-9 15 -21z m67 -51 c0 -5 -16 -8 -35 -8 -37 0 -51 25 -17 32 18 4 52 -12 52
-24z m-1625 -7 c3 -5 2 -12 -3 -15 -5 -3 -9 1 -9 9 0 17 3 19 12 6z m2695 -21
c8 -5 11 -10 5 -10 -5 0 -17 5 -25 10 -8 5 -10 10 -5 10 6 0 17 -5 25 -10z
m220 -14 c0 -3 -4 -8 -10 -11 -5 -3 -10 -1 -10 4 0 6 5 11 10 11 6 0 10 -2 10
-4z m-300 -46 c0 -5 -5 -10 -11 -10 -5 0 -7 5 -4 10 3 6 8 10 11 10 2 0 4 -4
4 -10z m-55 -10 c3 -5 1 -10 -4 -10 -6 0 -11 5 -11 10 0 6 2 10 4 10 3 0 8 -4
11 -10z m-38 -42 c-3 -8 -6 -5 -6 6 -1 11 2 17 5 13 3 -3 4 -12 1 -19z m223
13 c0 -5 -7 -11 -14 -14 -10 -4 -13 -1 -9 9 6 15 23 19 23 5z m-190 -52 c0 -5
-4 -9 -10 -9 -5 0 -10 7 -10 16 0 8 5 12 10 9 6 -3 10 -10 10 -16z m100 12 c0
-6 -4 -13 -10 -16 -5 -3 -10 1 -10 9 0 9 5 16 10 16 6 0 10 -4 10 -9z m-223
-57 c-3 -3 -12 -4 -19 -1 -8 3 -5 6 6 6 11 1 17 -2 13 -5z m-1195 -86 c2 -40
2 -79 0 -85 -3 -10 -113 -13 -503 -13 l-499 0 0 33 c0 17 3 56 6 85 l7 52 493
0 492 0 4 -72z m1593 -334 c-3 -30 -11 -54 -17 -54 -5 0 -7 12 -4 28 3 15 8
45 12 67 10 57 17 24 9 -41z m-23 -234 l-4 -115 -104 -3 -104 -2 -20 32 c-29
48 -36 132 -16 176 l17 35 79 -6 c63 -4 82 -2 92 10 7 8 21 19 33 23 28 10 31
-10 27 -150z m-1432 -25 l0 -175 -60 0 -60 0 2 160 c2 88 7 159 11 158 5 -2
13 5 18 15 7 12 22 17 49 17 l40 0 0 -175z m-1249 145 c6 0 7 5 4 10 -4 6 8
10 29 10 l36 0 2 -137 2 -138 6 125 6 125 2 -155 2 -155 -45 3 c-31 3 -45 9
-45 19 0 8 -4 11 -10 8 -5 -3 -10 -1 -10 4 0 6 6 11 13 11 8 0 7 4 -3 10 -10
6 -11 10 -2 10 7 0 12 15 12 39 0 22 5 43 10 46 6 3 9 25 8 48 l-1 42 -7 -45
-7 -45 -3 45 c-3 34 -5 24 -10 -40 -6 -79 -6 -75 -7 50 -1 74 1 129 4 123 2
-7 9 -13 14 -13z m-2241 -510 c0 -25 4 -30 25 -30 24 0 25 -3 25 -55 l0 -55
-55 0 c-54 0 -55 0 -55 30 l0 30 -80 0 -80 0 0 -190 0 -190 80 0 c79 0 80 0
80 25 0 24 3 25 55 25 l55 0 0 -55 c0 -52 -1 -55 -25 -55 -20 0 -25 -5 -25
-25 l0 -25 -140 0 -140 0 0 25 c0 20 -5 25 -25 25 l-25 0 0 245 0 245 25 0
c21 0 25 5 25 30 l0 30 140 0 140 0 0 -30z m2290 -50 c0 -79 0 -80 25 -80 24
0 25 -3 25 -54 0 -52 -1 -55 -27 -58 l-28 -3 -3 -107 -3 -108 31 0 c30 0 30 0
30 -55 l0 -55 -55 0 c-52 0 -55 1 -55 25 0 20 -5 25 -25 25 l-24 0 -3 138 -3
137 -27 3 c-27 3 -28 6 -28 58 0 53 0 54 30 54 l30 0 0 80 0 80 55 0 55 0 0
-80z m710 0 c0 -79 0 -80 25 -80 24 0 25 -3 25 -54 0 -52 -1 -55 -27 -58 l-28
-3 -3 -107 -3 -108 31 0 c30 0 30 0 30 -55 l0 -55 -55 0 c-52 0 -55 1 -55 25
0 20 -5 25 -25 25 l-24 0 -3 138 -3 137 -27 3 c-27 3 -28 6 -28 58 0 53 0 54
30 54 l30 0 0 80 0 80 55 0 55 0 0 -80z m270 25 l0 -55 -54 0 -54 0 -4 51 c-1
28 -1 53 1 55 2 2 28 4 58 4 l53 0 0 -55z m1582 28 c2 -22 9 -29 31 -31 21 -3
27 -9 27 -28 0 -19 5 -24 25 -24 l25 0 0 -245 0 -245 -55 0 -55 0 0 105 0 105
-104 0 -103 0 -7 -52 c-3 -29 -6 -77 -6 -105 l0 -53 -50 0 -50 0 0 245 c0 238
1 245 20 245 11 0 21 7 21 15 1 8 2 21 3 28 0 6 13 13 29 15 21 3 27 9 27 28
0 24 0 24 109 24 l110 0 3 -27z m1205 -273 l-2 -300 -52 0 -53 0 0 300 0 300
54 0 54 0 -1 -300z m1093 245 l0 -55 -50 0 -50 0 0 55 0 55 50 0 50 0 0 -55z
m753 -42 c-7 -2 -19 -2 -25 0 -7 3 -2 5 12 5 14 0 19 -2 13 -5z m-7473 -93 c0
-25 4 -30 25 -30 l25 0 0 -165 0 -165 -25 0 c-20 0 -25 -5 -25 -25 l0 -25
-110 0 -110 0 0 25 c0 20 -5 25 -25 25 l-25 0 0 165 0 165 25 0 c21 0 25 5 25
30 l0 30 110 0 110 0 0 -30z m650 0 c0 -27 3 -30 30 -30 l30 0 0 -190 0 -190
-55 0 -55 0 0 165 0 165 -55 0 -55 0 0 -165 0 -165 -55 0 -55 0 0 165 0 165
-50 0 c-41 0 -50 -3 -51 -17 0 -10 -2 -54 -4 -98 -2 -44 -3 -110 -4 -147 l-1
-68 -50 0 -50 0 -1 98 c-1 175 -1 266 0 305 l1 37 240 0 240 0 0 -30z m270 0
c0 -27 3 -30 30 -30 27 0 30 3 30 30 l0 30 80 0 80 0 0 -30 c0 -27 3 -30 30
-30 l30 0 -2 -162 -3 -163 -27 -3 c-22 -3 -28 -9 -28 -28 0 -23 -2 -24 -80
-24 -79 0 -80 0 -80 25 0 21 -5 25 -31 25 l-31 0 3 -107 3 -108 -55 0 c-37 0
-54 4 -53 13 1 6 2 143 3 302 l1 290 50 0 c49 0 50 -1 50 -30z m660 0 c0 -25
4 -30 25 -30 25 0 25 -1 25 -80 l0 -80 -110 0 -110 0 0 -55 0 -55 55 0 c52 0
55 1 55 25 0 24 3 25 55 25 l55 0 0 -55 c0 -52 -1 -55 -25 -55 -20 0 -25 -5
-25 -25 l0 -25 -110 0 -110 0 0 25 c0 20 -5 25 -25 25 l-25 0 0 165 0 165 25
0 c21 0 25 5 25 30 l0 30 110 0 110 0 0 -30z m710 0 c0 -25 4 -30 25 -30 25 0
25 -1 25 -80 l0 -80 -110 0 -110 0 0 -55 0 -55 55 0 c52 0 55 1 55 25 0 24 3
25 55 25 l55 0 0 -55 c0 -52 -1 -55 -25 -55 -20 0 -25 -5 -25 -25 l0 -25 -110
0 -110 0 0 25 c0 20 -5 25 -25 25 l-25 0 0 165 0 165 25 0 c21 0 25 5 25 30
l0 30 110 0 110 0 0 -30z m545 -17 c-1 -24 -2 -122 -3 -218 l-2 -175 -50 0
-50 0 -1 185 c0 102 -1 199 -1 215 0 17 1 32 1 36 1 3 25 4 54 2 l52 -3 0 -42z
m217 -90 l3 -138 52 -3 52 -3 3 138 3 138 53 3 52 3 0 -165 0 -166 -25 0 c-21
0 -25 -5 -25 -30 0 -27 -3 -30 -30 -30 -25 0 -30 -4 -30 -25 0 -24 -3 -25 -55
-25 -52 0 -55 1 -55 25 0 20 -5 25 -25 25 -21 0 -25 5 -25 30 0 25 -4 30 -25
30 l-25 0 -1 128 c-1 70 -2 141 -4 157 -4 42 0 45 55 45 l49 0 3 -137z m608
107 c0 -25 4 -30 25 -30 25 0 25 -1 25 -80 l0 -80 -110 0 -110 0 0 -55 0 -55
55 0 c52 0 55 1 55 25 0 24 3 25 55 25 l55 0 0 -55 c0 -52 -1 -55 -25 -55 -20
0 -25 -5 -25 -25 l0 -25 -110 0 -110 0 0 25 c0 20 -5 25 -25 25 l-25 0 0 165
0 165 25 0 c21 0 25 5 25 30 l0 30 110 0 110 0 0 -30z m1250 0 c0 -25 4 -30
25 -30 l25 0 0 -190 0 -190 -55 0 -55 0 0 166 0 165 -52 -3 -53 -3 -3 -162 -2
-163 -50 0 -50 0 0 220 0 220 135 0 135 0 0 -30z m440 0 c0 -25 4 -30 25 -30
l25 0 0 -190 0 -190 -135 0 -135 0 0 25 c0 20 -5 25 -25 25 l-25 0 0 165 0
165 25 0 c21 0 25 5 25 30 l0 30 110 0 110 0 0 -30z m493 -52 c3 -46 3 -120 0
-165 l-6 -83 57 0 56 0 0 165 0 165 54 0 54 0 6 -77 c6 -98 7 -104 20 -96 6 4
4 -1 -4 -11 -9 -12 -16 -50 -18 -112 -4 -91 -5 -94 -28 -94 -22 0 -24 -4 -24
-49 0 -47 -2 -50 -27 -53 -22 -2 -29 -9 -31 -30 -3 -22 -9 -28 -28 -28 -20 0
-24 -5 -24 -30 l0 -30 -83 0 c-46 0 -86 2 -88 4 -2 2 -2 29 -1 60 l4 56 54 0
c51 0 54 1 54 25 0 20 -5 25 -25 25 -20 0 -25 5 -25 25 0 20 -5 25 -25 25
l-25 0 0 195 0 195 49 0 48 0 6 -82z m657 27 l0 -54 -107 -3 -108 -3 -3 -27
-3 -28 85 0 c85 0 86 0 86 -25 0 -20 5 -25 25 -25 25 0 25 -1 25 -85 0 -84 0
-85 -25 -85 -20 0 -25 -5 -25 -25 l0 -25 -135 0 -135 0 0 55 0 55 105 0 105 0
0 25 c0 25 -1 25 -80 25 -79 0 -80 0 -80 25 0 20 -5 25 -25 25 -17 0 -29 9
-40 30 -10 19 -11 30 -5 30 6 0 8 5 4 11 -4 7 -21 9 -45 5 -24 -4 -39 -2 -39
4 0 5 20 10 44 10 46 0 56 9 56 56 0 19 5 24 25 24 21 0 25 5 25 30 l0 30 135
0 135 0 0 -55z m220 -165 l0 -220 -50 0 -50 0 0 220 0 220 50 0 50 0 0 -220z
m440 161 l0 -58 -107 1 -108 1 -3 -27 -3 -28 85 0 c85 0 86 0 86 -25 0 -20 5
-25 25 -25 25 0 25 -1 25 -85 0 -84 0 -85 -25 -85 -20 0 -25 -5 -25 -25 l0
-25 -135 0 -135 0 0 55 0 55 105 0 105 0 0 25 c0 25 -1 25 -80 25 l-80 0 0 30
c0 25 -4 30 -25 30 -25 0 -25 1 -25 80 0 79 0 80 25 80 21 0 25 5 25 30 l0 30
135 0 135 0 0 -59z m-1030 -111 c0 -5 -4 -10 -10 -10 -5 0 -10 5 -10 10 0 6 5
10 10 10 6 0 10 -4 10 -10z m1707 -92 c-3 -8 -6 -5 -6 6 -1 11 2 17 5 13 3 -3
4 -12 1 -19z m3 -99 c0 -7 11 -8 31 -4 29 7 30 6 19 -15 -9 -17 -14 -19 -20
-10 -4 7 -12 10 -18 6 -5 -3 -13 1 -16 10 -5 12 -14 15 -36 10 -17 -3 -30 -1
-30 4 0 6 16 10 35 10 19 0 35 -5 35 -11z m384 -104 c3 -8 12 -12 21 -9 8 3
15 1 15 -4 0 -6 -10 -9 -21 -7 -12 2 -31 0 -42 -6 -14 -8 -21 -8 -27 0 -4 7
-11 1 -19 -15 -9 -21 -15 -24 -24 -15 -8 8 -5 15 13 28 14 10 33 16 42 15 13
-2 16 1 12 12 -4 10 -1 16 9 16 8 0 17 -7 21 -15z m-224 -15 c0 -5 -2 -10 -4
-10 -3 0 -8 5 -11 10 -3 6 -1 10 4 10 6 0 11 -4 11 -10z m450 -19 c0 -11 5
-23 10 -26 15 -9 12 -25 -5 -25 -18 0 -38 37 -31 56 8 21 26 17 26 -5z m-65
-29 c-3 -3 0 -11 6 -18 9 -10 7 -15 -4 -20 -24 -9 -41 5 -27 21 8 9 8 15 0 20
-6 3 -8 11 -4 16 4 6 11 6 20 -2 8 -6 12 -14 9 -17z m-58 -26 c-4 -10 -13 -13
-23 -9 -15 6 -15 7 1 20 21 15 30 10 22 -11z m-7127 -70 c0 -9 -30 -14 -35 -6
-4 6 3 10 14 10 12 0 21 -2 21 -4z m2784 -11 c-4 -8 -10 -15 -15 -15 -5 0 -9
7 -9 15 0 8 7 15 15 15 9 0 12 -6 9 -15z m131 -5 c-3 -5 1 -10 9 -10 19 0 20
-7 3 -24 -8 -8 -20 -10 -32 -5 -11 4 -14 8 -6 8 7 1 11 7 8 15 -6 15 1 26 15
26 5 0 6 -4 3 -10z m95 -10 c0 -11 -4 -20 -10 -20 -5 0 -10 5 -10 10 0 6 -7
10 -15 10 -8 0 -15 5 -15 10 0 6 11 10 25 10 18 0 25 -5 25 -20z m4450 -10 c0
-5 -4 -10 -10 -10 -5 0 -10 5 -10 10 0 6 5 10 10 10 6 0 10 -4 10 -10z m-4491
-30 c-22 -14 -34 2 -13 17 13 10 20 10 23 2 2 -6 -3 -15 -10 -19z m-2482 -79
c-1 -16 -5 -27 -9 -25 -10 6 -6 54 4 54 4 0 6 -13 5 -29z m26 -1 c-7 -28 -13
-25 -13 6 0 14 4 23 9 20 5 -3 7 -15 4 -26z m4727 -84 c0 -3 -4 -8 -10 -11 -5
-3 -10 -1 -10 4 0 6 5 11 10 11 6 0 10 -2 10 -4z m115 -16 c3 -6 -1 -7 -9 -4
-18 7 -21 14 -7 14 6 0 13 -4 16 -10z"/>
<path d="M2065 6615 c-126 -18 -293 -44 -370 -58 -77 -14 -214 -38 -305 -52
-260 -42 -443 -75 -466 -84 -16 -7 -21 -19 -23 -55 -1 -31 2 -46 10 -46 7 0
145 25 308 55 264 48 468 84 991 174 l155 27 3 37 c3 37 3 37 -35 36 -21 0
-141 -16 -268 -34z"/>
<path d="M411 6627 c-1 -10 -8 -20 -16 -23 -24 -10 -17 -22 10 -16 27 5 28 7
15 37 -8 18 -9 18 -9 2z"/>
<path d="M346 6603 c-4 -5 -19 -8 -34 -8 -14 -1 -28 -7 -30 -14 -4 -11 5 -13
37 -8 48 6 59 13 45 27 -6 6 -14 7 -18 3z"/>
<path d="M1280 6580 c0 -5 5 -10 10 -10 6 0 10 5 10 10 0 6 -4 10 -10 10 -5 0
-10 -4 -10 -10z"/>
<path d="M2270 6469 c-19 -5 -50 -11 -69 -14 -35 -5 -60 -28 -61 -57 0 -11 7
-18 19 -18 28 0 36 19 15 34 -16 12 -15 13 10 18 29 6 30 5 40 -34 5 -21 3
-28 -9 -28 -8 0 -15 -7 -15 -15 0 -8 8 -15 19 -15 16 0 19 -7 17 -57 -1 -38
-6 -62 -16 -70 -13 -11 -13 -14 0 -22 13 -9 13 -12 -2 -27 -16 -16 -16 -18 -1
-29 19 -14 9 -35 -18 -35 -24 0 -26 -20 -1 -21 9 -1 20 -1 25 0 4 0 7 -3 7 -9
0 -6 -10 -10 -21 -10 -18 0 -19 -2 -9 -15 19 -23 -11 -50 -57 -53 -21 -2 -41
-8 -45 -15 -6 -9 -8 -8 -8 3 -1 11 -3 11 -11 -3 -6 -10 -9 -21 -6 -23 3 -3 36
1 73 9 38 8 73 12 78 9 5 -3 -4 -16 -20 -29 l-29 -23 83 4 c45 3 87 8 92 11 7
4 10 103 10 276 l-1 269 -27 -1 c-15 -1 -43 -5 -62 -10z"/>
<path d="M650 6460 c0 -5 5 -10 11 -10 5 0 7 5 4 10 -3 6 -8 10 -11 10 -2 0
-4 -4 -4 -10z"/>
<path d="M670 6410 c0 -5 7 -10 16 -10 8 0 12 5 9 10 -3 6 -10 10 -16 10 -5 0
-9 -4 -9 -10z"/>
<path d="M690 6370 l-135 -27 2 -32 c0 -18 4 -35 7 -38 5 -6 265 33 272 40 10
9 9 87 0 86 -6 -1 -72 -14 -146 -29z"/>
<path d="M1986 6381 c-5 -14 -4 -27 3 -34 15 -15 18 -7 11 28 -6 29 -6 29 -14
6z"/>
<path d="M2044 6384 c3 -9 6 -18 6 -20 0 -2 12 -4 27 -4 25 0 26 0 8 20 -22
24 -50 27 -41 4z"/>
<path d="M1848 6383 c7 -3 16 -2 19 1 4 3 -2 6 -13 5 -11 0 -14 -3 -6 -6z"/>
<path d="M2138 6349 c-17 -18 -17 -19 7 -19 18 0 25 5 25 20 0 25 -10 24 -32
-1z"/>
<path d="M1605 6349 c-22 -5 -50 -11 -62 -14 -15 -4 -20 -10 -16 -21 4 -12 8
-12 13 -4 4 7 12 10 18 6 6 -3 13 -2 17 4 3 5 14 10 24 10 10 0 32 7 47 15 32
16 20 18 -41 4z"/>
<path d="M1850 6345 c-10 -12 -10 -15 4 -15 9 0 16 7 16 15 0 8 -2 15 -4 15
-2 0 -9 -7 -16 -15z"/>
<path d="M2038 6343 c6 -2 18 -2 25 0 6 3 1 5 -13 5 -14 0 -19 -2 -12 -5z"/>
<path d="M1730 6330 c0 -5 4 -10 9 -10 6 0 13 5 16 10 3 6 -1 10 -9 10 -9 0
-16 -4 -16 -10z"/>
<path d="M1990 6314 c0 -8 5 -12 10 -9 6 4 8 11 5 16 -9 14 -15 11 -15 -7z"/>
<path d="M2060 6320 c0 -5 5 -10 10 -10 6 0 10 5 10 10 0 6 -4 10 -10 10 -5 0
-10 -4 -10 -10z"/>
<path d="M364 6298 c-3 -5 9 -8 25 -8 17 0 31 4 31 10 0 11 -49 9 -56 -2z"/>
<path d="M1746 6299 c3 -6 -4 -20 -15 -31 -12 -11 -21 -24 -19 -30 5 -13 23
-11 23 2 0 6 11 16 24 23 29 15 29 28 1 39 -14 5 -19 4 -14 -3z"/>
<path d="M2150 6294 c0 -9 5 -14 12 -12 18 6 21 28 4 28 -9 0 -16 -7 -16 -16z"/>
<path d="M1358 6293 c7 -3 16 -2 19 1 4 3 -2 6 -13 5 -11 0 -14 -3 -6 -6z"/>
<path d="M1810 6290 c0 -5 5 -10 10 -10 6 0 10 5 10 10 0 6 -4 10 -10 10 -5 0
-10 -4 -10 -10z"/>
<path d="M1295 6281 c-3 -6 -24 -9 -46 -9 -25 0 -45 -5 -50 -13 -13 -21 -11
-29 6 -23 8 4 15 10 15 15 0 17 17 9 28 -13 10 -21 11 -21 9 -3 -1 15 4 20 21
19 12 0 22 5 22 13 0 7 5 13 11 13 6 0 9 -7 5 -15 -3 -8 -1 -15 3 -15 11 0 22
26 14 34 -9 9 -31 7 -38 -3z"/>
<path d="M1993 6279 c-7 -7 -9 -18 -6 -26 3 -8 -4 -24 -16 -37 -12 -12 -18
-26 -14 -30 11 -10 12 -36 2 -36 -5 0 -9 -9 -9 -20 0 -25 35 -27 49 -2 6 9 11
11 11 5 0 -8 12 -12 33 -10 27 2 33 7 35 26 2 22 -1 23 -33 18 -30 -5 -35 -3
-35 14 0 12 10 23 25 29 14 5 25 13 25 18 0 5 -11 7 -25 4 -34 -6 -32 16 1 29
30 11 29 14 -7 22 -14 4 -30 2 -36 -4z"/>
<path d="M2100 6280 c0 -5 7 -10 15 -10 8 0 15 5 15 10 0 6 -7 10 -15 10 -8 0
-15 -4 -15 -10z"/>
<path d="M2166 6261 c-4 -6 -16 -11 -27 -11 -10 0 -19 -5 -19 -11 0 -7 12 -8
33 -4 39 9 44 12 30 26 -8 8 -13 8 -17 0z"/>
<path d="M1093 6240 c-5 -21 -29 -28 -35 -10 -2 5 -32 7 -75 3 l-73 -6 0 -57
c0 -56 0 -57 26 -52 20 4 25 1 22 -9 -3 -8 -15 -13 -27 -12 -12 2 -21 -3 -21
-11 0 -11 15 -13 64 -11 34 1 69 6 77 10 12 7 12 6 1 -7 -7 -8 -27 -18 -45
-21 -17 -4 -43 -9 -57 -13 -23 -7 -24 -6 -10 11 14 17 13 18 -3 12 -10 -4 -21
-7 -23 -7 -2 0 -4 -11 -4 -25 0 -15 5 -25 13 -24 28 3 40 -3 17 -10 -20 -5
-26 -15 -30 -46 -7 -59 0 -107 15 -101 7 2 16 -2 19 -10 8 -22 8 -22 -16 -26
-15 -2 -23 -10 -23 -23 0 -16 6 -19 28 -17 33 3 36 -15 3 -24 -19 -5 -25 -13
-28 -46 -2 -22 0 -42 4 -44 5 -3 25 0 46 7 20 7 43 12 50 11 6 -2 12 2 12 9 0
6 -8 9 -20 6 -11 -3 -20 -2 -20 3 0 4 16 10 35 12 26 3 34 1 31 -9 -3 -7 2
-13 10 -13 10 0 14 6 10 15 -3 8 -1 15 3 15 5 0 18 3 28 7 16 6 17 5 3 -12
-13 -16 -13 -18 0 -10 8 5 28 8 45 7 25 -1 26 1 10 7 -18 8 -17 9 10 16 73 17
73 23 -2 26 -53 3 -65 19 -13 19 16 0 32 5 35 10 3 6 18 10 33 11 26 1 26 1
-5 10 -18 5 -33 15 -33 23 0 14 41 36 67 36 9 0 13 6 9 15 -3 8 -1 15 4 15 6
0 10 -4 10 -10 0 -5 12 -10 26 -10 15 0 24 5 22 12 -2 6 4 20 14 30 31 31 22
40 -29 32 -27 -4 -58 -11 -70 -15 -24 -9 -30 -33 -12 -45 8 -5 6 -10 -5 -16
-21 -12 -47 7 -39 29 3 8 0 19 -8 25 -11 7 -11 11 -1 15 6 2 12 11 12 18 0 7
-6 15 -12 18 -10 4 -10 7 0 18 16 18 15 29 -3 29 -18 0 -19 7 -2 24 8 8 11 34
9 74 -3 51 -7 62 -21 62 -9 0 -23 -6 -29 -12 -10 -10 -15 -10 -22 2 -8 12 -2
16 29 18 44 3 56 21 36 49 -13 17 -14 17 -29 -2 -13 -16 -15 -17 -10 -2 4 12
1 17 -11 17 -9 0 -19 -9 -22 -20z m-130 -47 c-7 -2 -21 -2 -30 0 -10 3 -4 5
12 5 17 0 24 -2 18 -5z m93 -12 c-3 -4 -25 -11 -48 -15 -23 -4 -48 -12 -55
-18 -10 -8 -17 -8 -25 0 -17 17 1 34 32 27 16 -3 31 -2 35 4 3 6 20 11 36 11
17 0 28 -4 25 -9z m58 -46 c-4 -8 -8 -15 -10 -15 -2 0 -4 7 -4 15 0 8 4 15 10
15 5 0 7 -7 4 -15z m-64 -4 c0 -4 -13 -12 -30 -18 -26 -10 -30 -9 -30 6 0 13
8 18 30 18 17 0 30 -3 30 -6z m105 -40 c-15 -12 -75 -22 -75 -11 0 8 22 14 70
19 8 0 10 -2 5 -8z m-41 -47 c3 -9 11 -12 18 -8 10 5 10 4 1 -6 -9 -10 -15
-10 -27 3 -18 18 -20 27 -7 27 5 0 12 -7 15 -16z m-54 -24 c-20 -13 -73 -13
-65 0 3 6 23 10 43 10 28 0 33 -3 22 -10z m-26 -58 c6 -10 -30 -9 -40 1 -4 4
2 7 14 7 11 0 23 -4 26 -8z m-74 -22 c0 -5 -7 -10 -16 -10 -8 0 -12 5 -9 10 3
6 10 10 16 10 5 0 9 -4 9 -10z m190 -8 c0 -4 -9 -8 -19 -8 -11 0 -17 4 -15 8
3 4 12 8 20 8 8 0 14 -4 14 -8z m-110 -21 c0 -12 -20 -25 -27 -18 -7 7 6 27
18 27 5 0 9 -4 9 -9z m30 -49 c0 -4 -9 -8 -20 -8 -11 0 -20 4 -20 8 0 4 9 8
20 8 11 0 20 -4 20 -8z m92 -44 c-7 -7 -12 -8 -12 -2 0 14 12 26 19 19 2 -3
-1 -11 -7 -17z m-152 -18 c0 -5 -4 -10 -10 -10 -5 0 -10 5 -10 10 0 6 5 10 10
10 6 0 10 -4 10 -10z m90 -41 c0 -12 -37 -12 -45 1 -3 6 1 7 9 4 9 -3 16 -1
16 6 0 6 5 8 10 5 6 -3 10 -10 10 -16z m-88 -11 c-6 -6 -15 -8 -19 -4 -4 4 -1
11 7 16 19 12 27 3 12 -12z"/>
<path d="M1570 6226 c-17 -17 -11 -36 11 -36 24 0 53 26 44 39 -7 12 -42 10
-55 -3z"/>
<path d="M1660 6233 c0 -5 5 -15 10 -23 7 -11 12 -12 21 -3 6 6 8 16 5 22 -8
12 -36 15 -36 4z"/>
<path d="M1315 6220 c-3 -5 -1 -10 4 -10 6 0 11 5 11 10 0 6 -2 10 -4 10 -3 0
-8 -4 -11 -10z"/>
<path d="M1855 6200 c-3 -5 -1 -10 4 -10 6 0 11 5 11 10 0 6 -2 10 -4 10 -3 0
-8 -4 -11 -10z"/>
<path d="M763 6187 c-4 -6 5 -8 25 -4 24 5 32 2 35 -11 4 -13 5 -11 6 5 1 18
-4 22 -29 21 -17 -1 -34 -6 -37 -11z"/>
<path d="M1210 6184 c0 -8 5 -12 10 -9 6 4 8 11 5 16 -9 14 -15 11 -15 -7z"/>
<path d="M2155 6191 c-3 -5 -1 -12 5 -16 5 -3 10 1 10 9 0 18 -6 21 -15 7z"/>
<path d="M690 6166 c0 -31 16 -42 23 -16 3 11 1 20 -5 20 -5 0 -6 5 -3 10 3 6
1 10 -4 10 -6 0 -11 -11 -11 -24z"/>
<path d="M1735 6180 c4 -6 11 -8 16 -5 14 9 11 15 -7 15 -8 0 -12 -5 -9 -10z"/>
<path d="M1620 6154 c0 -39 -18 -64 -45 -64 -22 0 -25 4 -25 36 0 24 -4 34
-12 32 -10 -4 -14 -53 -16 -192 l-2 -188 37 7 c21 4 47 12 58 18 19 11 19 11
1 15 -15 3 -16 6 -5 14 11 7 11 11 2 15 -21 8 -15 22 18 38 29 15 30 18 15 34
-9 10 -16 25 -16 33 0 9 -5 18 -12 20 -7 3 -8 9 -3 19 5 8 8 22 7 31 -2 11 5
18 20 20 19 2 24 11 29 45 3 23 2 40 -2 37 -10 -6 -22 33 -14 46 3 5 -3 10
-14 10 -16 0 -21 -6 -21 -26z m-33 -130 c-3 -3 -12 -4 -19 -1 -8 3 -5 6 6 6
11 1 17 -2 13 -5z m3 -34 c8 -5 11 -12 8 -16 -10 -9 -38 3 -38 16 0 12 10 13
30 0z"/>
<path d="M2090 6170 c0 -5 4 -10 9 -10 6 0 13 5 16 10 3 6 -1 10 -9 10 -9 0
-16 -4 -16 -10z"/>
<path d="M471 6153 c-6 -10 -11 -12 -11 -5 0 24 -80 11 -80 -13 0 -8 -10 -15
-22 -17 -12 -2 -23 -9 -26 -17 -3 -10 2 -12 22 -7 27 7 30 1 27 -36 -1 -10 3
-18 10 -18 8 0 8 -4 1 -13 -6 -6 -10 -35 -10 -62 0 -95 1 -92 -39 -102 -24 -5
-39 -15 -41 -26 -2 -11 2 -18 10 -16 41 5 68 -2 68 -19 0 -10 5 -23 11 -29 16
-16 1 -35 -21 -28 -26 8 -70 -5 -70 -21 0 -10 10 -13 35 -9 20 2 40 7 45 10
14 8 22 -13 12 -31 -6 -10 -12 -13 -16 -6 -4 7 -17 7 -35 2 -16 -4 -32 -6 -35
-2 -3 3 -6 -3 -6 -13 0 -15 6 -17 50 -11 44 6 50 5 48 -11 0 -10 0 -30 0 -45
2 -25 6 -28 37 -28 37 0 59 25 36 40 -9 5 -8 9 4 14 33 12 47 7 40 -15 -6 -16
-3 -20 11 -17 13 2 19 13 19 41 2 31 -1 37 -14 31 -26 -11 -102 -14 -96 -3 4
5 15 9 26 9 20 0 23 4 33 52 3 15 13 34 21 42 9 8 18 32 21 53 2 20 6 38 8 40
2 2 0 19 -4 38 -9 38 -1 49 42 60 26 7 27 5 26 -34 0 -23 -5 -41 -11 -41 -7 0
-7 -4 1 -12 19 -19 14 -38 -10 -48 l-23 -9 23 -7 c12 -3 22 -10 22 -14 0 -10
-21 -26 -40 -33 -8 -2 -3 -3 12 -1 26 3 46 -11 34 -24 -4 -3 -19 -6 -34 -7
-20 0 -27 -5 -27 -20 0 -11 7 -20 15 -20 8 -1 25 -6 37 -13 12 -7 23 -12 25
-12 2 0 3 97 3 215 0 215 -2 224 -35 204 -13 -7 -12 -8 3 -9 10 0 17 -8 17
-20 0 -15 -7 -20 -29 -20 -34 0 -45 13 -46 55 0 28 3 30 40 35 36 5 38 6 20
16 -11 6 -43 14 -72 18 -43 5 -53 4 -62 -11z m149 -143 c0 -13 -38 -22 -62
-14 -21 6 -20 7 8 19 29 12 54 10 54 -5z m-173 -396 c-3 -3 -12 -4 -19 -1 -8
3 -5 6 6 6 11 1 17 -2 13 -5z"/>
<path d="M745 6150 c-17 -11 -23 -20 -15 -20 13 0 13 -2 0 -9 -8 -6 -18 -7
-22 -5 -4 3 -8 0 -8 -6 0 -7 7 -9 16 -6 9 3 19 6 24 6 5 0 11 8 15 19 4 13 12
17 29 14 16 -3 23 0 23 11 0 12 -4 13 -11 6 -13 -13 -29 -13 -21 0 9 14 4 13
-30 -10z"/>
<path d="M2162 6140 c0 -14 2 -19 5 -12 2 6 2 18 0 25 -3 6 -5 1 -5 -13z"/>
<path d="M1210 6130 c0 -5 7 -7 15 -4 8 4 15 8 15 10 0 2 -7 4 -15 4 -8 0 -15
-4 -15 -10z"/>
<path d="M1725 6130 c-3 -5 -2 -10 4 -10 5 0 13 5 16 10 3 6 2 10 -4 10 -5 0
-13 -4 -16 -10z"/>
<path d="M1293 6090 c1 -8 0 -15 -3 -16 -3 0 -16 -7 -30 -14 -14 -8 -28 -13
-32 -12 -18 5 -6 -17 12 -23 27 -8 26 -33 -2 -37 -12 -2 -23 -9 -26 -17 -3
-10 5 -12 39 -6 24 4 47 9 51 11 13 8 -4 35 -18 30 -8 -3 -14 -1 -14 5 0 6 9
13 20 16 14 4 20 14 20 33 0 18 7 31 23 38 21 10 20 11 -10 9 -22 -1 -31 -6
-30 -17z"/>
<path d="M1840 6106 c0 -2 7 -9 15 -16 12 -10 15 -10 15 4 0 9 -7 16 -15 16
-8 0 -15 -2 -15 -4z"/>
<path d="M810 6090 c0 -5 5 -10 10 -10 6 0 10 5 10 10 0 6 -4 10 -10 10 -5 0
-10 -4 -10 -10z"/>
<path d="M1215 6091 c-12 -11 -3 -19 20 -17 14 0 25 6 25 13 0 11 -35 14 -45
4z"/>
<path d="M1723 6087 c-10 -17 6 -18 34 -3 l28 15 -28 -2 c-16 -1 -31 -5 -34
-10z"/>
<path d="M2006 6076 c-33 -6 -61 -17 -64 -24 -3 -9 3 -11 20 -7 31 8 52 12
111 21 32 4 44 10 35 15 -16 10 -25 10 -102 -5z"/>
<path d="M328 6073 c-10 -2 -18 -11 -18 -19 0 -22 54 -14 58 9 3 17 -6 19 -40
10z"/>
<path d="M727 6049 c-3 -12 -10 -18 -16 -14 -6 3 -12 0 -12 -7 -5 -43 -6 -128
-2 -155 l5 -32 64 2 64 2 0 49 c0 47 0 48 -27 42 -27 -6 -27 -6 -9 9 11 8 23
15 28 15 4 0 8 7 8 15 0 8 -5 15 -11 15 -8 0 -8 4 -2 13 12 15 13 47 1 47 -4
0 -8 -4 -8 -10 0 -5 -12 -10 -26 -10 -17 0 -28 6 -31 20 -7 26 -19 26 -26 -1z
m73 -60 c0 -5 -4 -9 -10 -9 -5 0 -10 7 -10 16 0 8 5 12 10 9 6 -3 10 -10 10
-16z m-60 -59 c0 -5 -4 -10 -10 -10 -5 0 -10 5 -10 10 0 6 5 10 10 10 6 0 10
-4 10 -10z m65 -51 c-4 -5 -23 -9 -43 -8 l-37 1 35 12 c36 14 55 12 45 -5z"/>
<path d="M1720 6036 c0 -7 7 -13 15 -13 8 0 15 4 15 8 0 4 -7 9 -15 13 -9 3
-15 0 -15 -8z"/>
<path d="M2080 6029 c0 -6 -8 -8 -18 -5 -22 7 -95 -21 -88 -33 8 -12 57 -5 66
9 6 9 9 9 14 1 4 -6 12 -8 18 -5 6 4 20 7 32 8 11 1 22 9 24 19 3 13 -3 17
-22 17 -14 0 -26 -5 -26 -11z"/>
<path d="M2150 6025 c0 -16 16 -20 24 -6 3 5 -1 11 -9 15 -9 3 -15 0 -15 -9z"/>
<path d="M333 6017 c-32 -14 -28 -32 7 -34 24 -2 30 2 30 17 0 25 -10 30 -37
17z"/>
<path d="M1320 5995 c0 -13 4 -14 23 -4 33 17 33 19 4 19 -18 0 -27 -5 -27
-15z"/>
<path d="M1738 5992 c-19 -4 -26 -42 -8 -42 9 0 35 39 28 44 -2 1 -11 1 -20
-2z"/>
<path d="M311 5947 c-1 -20 3 -26 12 -20 6 4 20 6 30 5 9 -2 17 3 17 11 0 21
-11 27 -31 17 -12 -7 -19 -6 -22 3 -3 6 -6 -1 -6 -16z"/>
<path d="M2003 5963 c-12 -2 -27 -11 -34 -19 -11 -14 -8 -15 27 -9 54 9 64 13
64 25 0 10 -16 11 -57 3z"/>
<path d="M1855 5950 c-3 -5 -1 -10 4 -10 6 0 11 5 11 10 0 6 -2 10 -4 10 -3 0
-8 -4 -11 -10z"/>
<path d="M3587 5933 l-14 -27 -12 22 c-22 42 -34 25 -56 -85 -9 -44 18 -45 40
-3 9 17 21 30 27 30 6 0 19 7 29 16 16 14 18 14 24 -5 14 -44 35 -16 35 46 0
35 0 36 -20 18 -18 -16 -20 -16 -20 -2 0 26 -18 20 -33 -10z"/>
<path d="M1725 5929 c-11 -17 1 -21 15 -4 8 9 8 15 2 15 -6 0 -14 -5 -17 -11z"/>
<path d="M2081 5926 c-7 -8 -21 -12 -33 -8 -15 3 -19 1 -16 -9 4 -12 28 -16
60 -10 5 1 8 41 2 41 -1 0 -7 -6 -13 -14z"/>
<path d="M2120 5920 c19 -13 30 -13 30 0 0 6 -10 10 -22 10 -19 0 -20 -2 -8
-10z"/>
<path d="M333 5912 c-31 -5 -30 -32 1 -32 27 0 44 17 30 29 -5 4 -19 5 -31 3z"/>
<path d="M1954 5901 c4 -5 0 -11 -6 -14 -7 -2 -10 -7 -7 -11 10 -10 39 5 39
20 0 8 -7 14 -16 14 -8 0 -13 -4 -10 -9z"/>
<path d="M1720 5875 c0 -13 4 -14 20 -5 11 6 20 13 20 15 0 3 -9 5 -20 5 -11
0 -20 -7 -20 -15z"/>
<path d="M1805 5849 c7 -10 55 -9 55 2 0 3 -14 6 -30 7 -17 0 -28 -3 -25 -9z"/>
<path d="M1716 5842 c-10 -16 12 -24 46 -17 22 5 27 10 17 16 -7 4 -18 4 -24
-1 -7 -6 -16 -5 -22 1 -7 7 -13 7 -17 1z"/>
<path d="M3691 5834 c0 -11 3 -14 6 -6 3 7 2 16 -1 19 -3 4 -6 -2 -5 -13z"/>
<path d="M795 5811 c-3 -6 -3 -16 1 -22 3 -6 0 -15 -7 -20 -10 -6 -6 -9 14 -9
25 0 28 3 25 27 -3 28 -22 41 -33 24z"/>
<path d="M330 5801 c-25 -7 -36 -37 -12 -35 6 1 21 2 32 3 13 0 20 8 20 21 0
21 -1 22 -40 11z"/>
<path d="M1350 5771 c0 -6 5 -13 10 -16 6 -3 10 1 10 9 0 9 -4 16 -10 16 -5 0
-10 -4 -10 -9z"/>
<path d="M700 5738 c0 -19 2 -20 10 -8 13 19 13 30 0 30 -5 0 -10 -10 -10 -22z"/>
<path d="M520 5700 c0 -5 5 -10 10 -10 6 0 10 5 10 10 0 6 -4 10 -10 10 -5 0
-10 -4 -10 -10z"/>
<path d="M700 5689 c0 -5 5 -7 10 -4 6 3 10 8 10 11 0 2 -4 4 -10 4 -5 0 -10
-5 -10 -11z"/>
<path d="M2240 5665 c-69 -13 -201 -40 -295 -59 -93 -19 -262 -51 -375 -71
-175 -31 -707 -134 -778 -150 -19 -5 -21 -10 -16 -33 4 -15 8 -28 10 -30 1 -2
78 12 171 31 285 59 655 133 958 192 358 70 402 81 443 117 38 33 42 33 -118
3z"/>
<path d="M810 5670 c0 -5 -3 -9 -7 -8 -5 0 -16 -2 -26 -7 -9 -4 -28 -5 -42 -3
-15 3 -30 -1 -37 -10 -13 -15 9 -14 105 4 25 5 40 34 17 34 -5 0 -10 -4 -10
-10z"/>
<path d="M330 5641 c-8 -6 -18 -7 -22 -5 -4 3 -8 -2 -8 -11 0 -12 5 -15 16
-11 9 3 24 6 35 6 10 0 19 7 19 15 0 17 -18 19 -40 6z"/>
<path d="M620 5639 c0 -5 5 -7 10 -4 6 3 10 8 10 11 0 2 -4 4 -10 4 -5 0 -10
-5 -10 -11z"/>
<path d="M318 5587 c-38 -15 -35 -27 5 -27 38 0 62 13 53 29 -8 13 -21 13 -58
-2z"/>
<path d="M2797 5574 c-12 -16 -28 -24 -47 -24 -34 0 -34 0 -18 -35 15 -33 22
-32 47 11 14 23 27 34 36 30 10 -4 14 1 12 14 -5 30 -10 30 -30 4z"/>
<path d="M2679 5483 c-1 -10 -3 -28 -4 -40 -1 -13 2 -23 6 -23 5 0 9 18 9 40
0 39 -9 57 -11 23z"/>
<path d="M2834 5484 c3 -9 6 -22 6 -30 0 -9 5 -12 10 -9 17 10 12 55 -6 55
-11 0 -14 -5 -10 -16z"/>
<path d="M635 5359 c-137 -25 -221 -42 -229 -47 -4 -2 -2 -8 5 -13 11 -7 9 -9
-6 -9 -12 0 -26 -5 -33 -12 -9 -9 -12 -8 -12 4 0 9 8 19 18 21 15 4 15 5 0 6
-9 0 -24 -9 -32 -21 -14 -19 -16 -20 -16 -5 0 16 -2 17 -15 3 -26 -26 -18 -39
18 -31 17 4 39 8 47 10 8 1 22 5 30 8 38 13 124 31 225 46 88 13 110 20 113
34 4 20 -27 21 -113 6z"/>
<path d="M310 5210 c-8 -5 -12 -11 -9 -14 2 -3 11 -1 19 4 8 5 12 11 9 14 -2
3 -11 1 -19 -4z"/>
<path d="M7507 5840 c-7 -29 -37 -37 -53 -15 -13 18 -14 17 -14 -8 0 -22 4
-27 25 -27 20 0 29 -8 40 -32 8 -18 14 -28 15 -21 0 7 7 10 17 6 12 -5 14 -3
8 8 -5 8 -8 26 -6 41 5 53 -20 92 -32 48z"/>
<path d="M7386 5813 c-18 -35 -21 -90 -7 -112 8 -12 11 -8 16 15 4 16 11 40
16 55 6 15 6 35 1 49 l-9 25 -17 -32z"/>
<path d="M11085 5160 c3 -5 11 -10 16 -10 6 0 7 5 4 10 -3 6 -11 10 -16 10 -6
0 -7 -4 -4 -10z"/>
<path d="M11030 5158 c3 -2 23 -15 45 -28 36 -21 38 -21 20 -3 -11 12 -31 24
-45 28 -14 4 -23 5 -20 3z"/>
<path d="M11250 5150 c-12 -8 -11 -10 8 -10 12 0 22 5 22 10 0 13 -11 13 -30
0z"/>
<path d="M11145 5140 c-3 -5 1 -10 9 -10 9 0 16 5 16 10 0 6 -4 10 -9 10 -6 0
-13 -4 -16 -10z"/>
<path d="M11256 5116 c10 -8 21 -11 24 -8 3 4 9 10 14 15 5 4 -6 7 -24 7 -32
0 -33 -1 -14 -14z"/>
<path d="M9512 5480 c0 -14 2 -19 5 -12 2 6 2 18 0 25 -3 6 -5 1 -5 -13z"/>
<path d="M9178 5272 c-22 -4 -23 -16 -3 -32 11 -9 19 -10 26 -3 15 15 -2 40
-23 35z"/>
<path d="M9847 5448 c-21 -28 -31 -62 -23 -83 9 -24 43 -17 81 16 27 24 35 39
33 58 -3 22 -9 26 -38 29 -26 2 -39 -3 -53 -20z"/>
<path d="M2155 4990 c-7 -12 12 -60 25 -60 5 0 10 -6 10 -13 0 -17 40 -41 51
-30 12 12 -5 99 -19 96 -6 -2 -23 2 -36 7 -14 5 -28 5 -31 0z"/>
<path d="M2752 4708 c-7 -7 -12 -19 -12 -28 0 -19 30 -50 48 -50 13 0 78 58
71 64 -30 26 -88 33 -107 14z"/>
<path d="M520 4989 c0 -5 5 -7 10 -4 6 3 10 8 10 11 0 2 -4 4 -10 4 -5 0 -10
-5 -10 -11z"/>
<path d="M11131 4976 c-6 -7 -11 -27 -11 -42 0 -16 -1 -42 -2 -59 -3 -27 0
-30 26 -28 38 3 64 28 78 76 11 35 10 41 -7 53 -24 18 -69 18 -84 0z"/>
<path d="M11271 4954 c0 -11 3 -14 6 -6 3 7 2 16 -1 19 -3 4 -6 -2 -5 -13z"/>
<path d="M7884 4771 c5 -8 56 -3 56 5 0 2 -14 4 -31 4 -16 0 -28 -4 -25 -9z"/>
<path d="M3433 4503 c-21 -8 -15 -22 17 -38 38 -20 40 -19 40 9 0 29 -25 42
-57 29z"/>
<path d="M11671 4453 c0 -36 3 -43 9 -28 12 28 12 63 0 70 -6 4 -10 -12 -9
-42z"/>
<path d="M6580 4441 c-23 -7 -25 -12 -23 -62 0 -30 10 -161 22 -291 12 -130
21 -276 21 -323 0 -141 -92 -125 745 -125 418 0 734 4 748 9 35 13 39 34 26
120 -9 61 -8 126 5 331 9 140 19 269 22 286 4 21 0 36 -11 47 -15 16 -82 17
-773 16 -416 -1 -768 -4 -782 -8z m823 -288 c4 -3 2 -12 -4 -19 -8 -10 -5 -16
15 -25 27 -13 33 -24 16 -34 -16 -10 -12 -36 7 -50 15 -11 15 -15 4 -29 -8 -9
-21 -14 -29 -11 -8 3 -21 0 -28 -6 -38 -32 -124 24 -124 80 0 35 17 51 55 51
35 0 56 16 48 36 -5 14 27 20 40 7z"/>
<path d="M3533 4375 c11 -25 29 -47 38 -50 24 -8 144 14 166 30 31 23 1 38
-87 43 -44 2 -83 9 -86 13 -3 5 -16 9 -28 9 l-24 0 21 -45z"/>
<path d="M9270 4329 c0 -5 5 -7 10 -4 6 3 10 8 10 11 0 2 -4 4 -10 4 -5 0 -10
-5 -10 -11z"/>
<path d="M11714 4115 c1 -46 21 -55 22 -10 l1 30 -5 -30 c-6 -29 -6 -29 -13
10 l-7 40 2 -40z"/>
<path d="M9936 4031 c-4 -7 -5 -15 -2 -18 9 -9 19 4 14 18 -4 11 -6 11 -12 0z"/>
<path d="M9890 3942 c0 -30 7 -45 33 -70 26 -26 36 -30 44 -20 13 17 -7 56
-26 50 -8 -3 -11 0 -7 7 4 6 3 11 -3 11 -10 0 -27 38 -23 53 1 4 -2 7 -8 7 -5
0 -10 -17 -10 -38z"/>
<path d="M9982 3927 c-8 -9 -8 -17 0 -27 8 -13 9 -12 5 2 -3 9 -1 19 6 21 7 2
9 7 6 11 -3 4 -11 1 -17 -7z"/>
<path d="M9981 3834 c0 -11 3 -14 6 -6 3 7 2 16 -1 19 -3 4 -6 -2 -5 -13z"/>
<path d="M10815 3700 c4 -6 11 -8 16 -5 14 9 11 15 -7 15 -8 0 -12 -5 -9 -10z"/>
<path d="M10873 3687 c14 -4 40 -4 59 1 29 8 27 9 -25 8 -45 0 -53 -2 -34 -9z"/>
<path d="M11240 3655 c7 -8 16 -15 20 -15 3 0 7 7 7 15 0 8 -9 15 -20 15 -16
0 -17 -3 -7 -15z"/>
<path d="M10988 3603 c7 -3 16 -2 19 1 4 3 -2 6 -13 5 -11 0 -14 -3 -6 -6z"/>
<path d="M10968 3583 c7 -3 16 -2 19 1 4 3 -2 6 -13 5 -11 0 -14 -3 -6 -6z"/>
<path d="M7720 3245 c-135 -19 -251 -34 -257 -34 -19 -1 -16 -27 21 -184 41
-170 125 -391 143 -374 2 3 2 40 -2 82 -5 55 -11 73 -18 66 -19 -19 -28 -12
-27 22 1 17 -2 44 -6 60 -7 31 10 59 32 50 8 -3 14 -18 14 -34 0 -34 4 -35 62
-9 25 11 61 21 81 22 29 3 34 6 26 20 -5 9 -9 28 -9 42 0 14 -5 26 -11 26 -5
0 -9 8 -8 18 4 41 0 44 -46 40 -25 -2 -45 0 -45 3 0 4 20 10 45 13 36 6 45 11
45 27 0 24 27 35 117 47 54 8 71 7 84 -4 14 -13 18 -12 29 1 9 11 16 13 24 5
8 -8 7 -13 -2 -19 -9 -6 -8 -12 8 -26 12 -11 18 -26 15 -35 -3 -10 1 -23 10
-30 10 -9 15 -31 15 -71 0 -59 10 -74 29 -42 8 15 10 14 16 -12 4 -17 9 -38
12 -47 4 -16 -4 -17 -89 -12 -101 6 -124 -1 -113 -35 4 -14 15 -21 33 -21 15
0 34 -5 42 -11 11 -8 6 -9 -21 -5 -19 4 -38 4 -41 1 -10 -10 16 -108 30 -113
6 -2 12 3 12 12 0 8 12 22 28 30 15 8 56 42 91 76 60 58 63 63 58 98 -9 60
-76 345 -87 370 -13 29 -34 28 -340 -13z m310 -55 c-8 -5 -26 -10 -40 -10 -14
0 -101 -12 -195 -26 -312 -47 -285 -46 -285 -13 0 21 -14 18 285 57 186 24
222 26 235 15 13 -12 13 -15 0 -23z m-291 -74 c-10 -9 -79 -14 -79 -5 0 5 19
9 42 9 23 0 39 -2 37 -4z m-119 -21 c0 -9 -9 -15 -25 -15 -16 0 -25 6 -25 15
0 9 9 15 25 15 16 0 25 -6 25 -15z m-66 -23 c3 -5 20 -7 38 -6 18 2 25 1 16
-2 -19 -6 -25 -34 -7 -34 5 0 -2 -11 -17 -25 -24 -23 -29 -24 -37 -10 -5 9 -6
23 -3 31 3 8 2 13 -3 10 -5 -3 -11 5 -13 19 -5 24 14 36 26 17z m535 -72 c1
-13 0 -13 -9 0 -5 8 -9 24 -9 35 l0 20 9 -20 c5 -11 9 -27 9 -35z m-486 -14
c3 -8 0 -17 -7 -19 -10 -4 -12 1 -9 14 6 23 9 24 16 5z m70 -23 c-7 -2 -19 -2
-25 0 -7 3 -2 5 12 5 14 0 19 -2 13 -5z m87 -28 c0 -8 -9 -15 -20 -15 -11 0
-23 0 -27 -1 -5 0 -9 7 -11 15 -3 12 5 16 27 16 21 0 31 -5 31 -15z"/>
<path d="M10125 3135 c-22 -8 -41 -15 -42 -15 -2 0 -3 -7 -3 -16 0 -14 -3 -14
-15 -4 -12 10 -19 10 -27 2 -9 -9 -7 -12 10 -12 12 0 22 -5 22 -11 0 -8 5 -8
15 1 8 7 15 19 15 26 0 8 14 17 30 21 17 3 33 10 36 14 6 11 8 11 -41 -6z"/>
<path d="M10170 3091 c0 -25 6 -27 13 -6 4 8 2 17 -3 20 -6 4 -10 -3 -10 -14z"/>
<path d="M9066 3022 c-5 -9 76 -73 107 -85 14 -5 17 -1 17 28 0 28 -5 37 -30
50 -31 16 -86 20 -94 7z"/>
<path d="M9891 2954 c0 -11 3 -14 6 -6 3 7 2 16 -1 19 -3 4 -6 -2 -5 -13z"/>
<path d="M7420 2926 c0 -12 89 -169 131 -231 53 -79 83 -110 98 -100 16 10 13
28 -4 22 -18 -7 -58 43 -110 138 -22 39 -45 75 -52 80 -6 6 -14 23 -17 38 -5
30 -23 57 -37 57 -5 0 -9 -2 -9 -4z"/>
<path d="M7810 2916 c0 -2 9 -6 20 -9 11 -3 20 -1 20 4 0 5 -9 9 -20 9 -11 0
-20 -2 -20 -4z"/>
<path d="M7580 2879 c0 -5 5 -7 10 -4 6 3 10 8 10 11 0 2 -4 4 -10 4 -5 0 -10
-5 -10 -11z"/>
<path d="M9313 2858 c-4 -7 -8 -16 -8 -20 0 -13 -15 -21 -15 -8 0 9 -5 7 -14
-5 -21 -30 -7 -40 20 -14 13 12 21 25 18 30 -2 4 4 12 13 18 10 6 13 11 6 11
-6 0 -15 -6 -20 -12z"/>
<path d="M9350 2850 c0 -6 7 -10 15 -10 8 0 15 2 15 4 0 2 -7 6 -15 10 -8 3
-15 1 -15 -4z"/>
<path d="M9350 2826 c0 -2 9 -6 20 -9 11 -3 18 -1 14 4 -5 9 -34 13 -34 5z"/>
<path d="M9316 2812 c-2 -4 4 -8 14 -8 10 0 16 4 14 8 -3 4 -9 8 -14 8 -5 0
-11 -4 -14 -8z"/>
<path d="M7997 2523 c-4 -3 -7 -11 -7 -17 0 -6 5 -5 12 2 6 6 9 14 7 17 -3 3
-9 2 -12 -2z"/>
<path d="M7661 2444 c0 -11 3 -14 6 -6 3 7 2 16 -1 19 -3 4 -6 -2 -5 -13z"/>
<path d="M7808 2343 c7 -3 16 -2 19 1 4 3 -2 6 -13 5 -11 0 -14 -3 -6 -6z"/>
<path d="M7990 2300 c-8 -5 -10 -10 -5 -10 6 0 17 5 25 10 8 5 11 10 5 10 -5
0 -17 -5 -25 -10z"/>
<path d="M7833 2263 c9 -2 25 -2 35 0 9 3 1 5 -18 5 -19 0 -27 -2 -17 -5z"/>
<path d="M1264 4063 c3 -21 11 -55 16 -75 10 -36 13 -38 50 -38 37 0 40 2 40
29 0 38 -19 93 -38 109 -9 6 -29 12 -45 12 -29 0 -29 -1 -23 -37z"/>
<path d="M5634 3196 c-13 -14 -28 -56 -20 -56 7 0 39 61 34 65 -2 2 -8 -3 -14
-9z"/>
<path d="M4548 2988 c5 -5 16 -8 23 -6 8 3 3 7 -10 11 -17 4 -21 3 -13 -5z"/>
<path d="M4604 2957 c14 -20 15 -30 7 -46 -6 -11 -11 -38 -11 -61 0 -40 1 -41
29 -38 16 1 36 -3 44 -11 13 -11 20 -10 41 6 14 10 26 21 26 26 0 4 7 7 15 7
9 0 18 7 21 15 4 8 12 15 18 15 21 0 69 57 56 65 -7 4 -16 2 -20 -4 -5 -9 -32
-6 -106 12 -54 14 -107 28 -118 32 -18 8 -18 7 -2 -18z m109 -114 c-3 -7 -11
-13 -19 -13 -8 0 -14 6 -14 13 0 7 8 13 19 13 11 0 17 -5 14 -13z"/>
<path d="M4599 2755 c-11 -25 -19 -50 -17 -55 2 -5 22 9 46 31 35 33 41 43 31
55 -21 25 -40 15 -60 -31z"/>
<path d="M6765 3010 c-8 -13 15 -13 35 0 12 8 11 10 -7 10 -12 0 -25 -4 -28
-10z"/>
<path d="M5836 2903 c-10 -10 -7 -19 14 -43 l20 -23 0 22 c0 15 -4 20 -12 15
-10 -6 -10 -4 0 8 10 13 10 17 -2 21 -8 3 -17 3 -20 0z"/>
<path d="M5828 2753 c6 -2 18 -2 25 0 6 3 1 5 -13 5 -14 0 -19 -2 -12 -5z"/>
<path d="M5522 1610 c0 -14 2 -19 5 -12 2 6 2 18 0 25 -3 6 -5 1 -5 -13z"/>
<path d="M5541 1614 c0 -11 3 -14 6 -6 3 7 2 16 -1 19 -3 4 -6 -2 -5 -13z"/>
<path d="M7940 1140 c0 -25 -4 -30 -25 -30 -23 0 -25 -3 -25 -50 l0 -50 105 0
105 0 0 50 c0 49 -1 50 -30 50 -27 0 -30 3 -30 30 0 29 -1 30 -50 30 -49 0
-50 -1 -50 -30z"/>
<path d="M3517 1003 c-4 -3 -7 -53 -7 -110 l0 -103 55 0 55 0 0 110 0 110 -48
0 c-27 0 -52 -3 -55 -7z"/>
<path d="M4660 981 c0 -28 -3 -31 -31 -31 l-30 0 3 -52 c3 -49 5 -53 31 -56
21 -3 27 -9 27 -28 0 -23 3 -24 55 -24 l56 0 -3 108 -3 107 -52 3 -53 3 0 -30z"/>
<path d="M5097 1003 c-4 -3 -7 -17 -7 -30 0 -21 4 -23 55 -23 54 0 55 0 55 30
0 29 -1 30 -48 30 -27 0 -52 -3 -55 -7z"/>
<path d="M5807 1003 c-4 -3 -7 -17 -7 -30 0 -21 4 -23 55 -23 54 0 55 0 55 30
0 29 -1 30 -48 30 -27 0 -52 -3 -55 -7z"/>
<path d="M7177 1003 c-4 -3 -7 -17 -7 -30 0 -21 4 -23 55 -23 54 0 55 0 55 30
0 29 -1 30 -48 30 -27 0 -52 -3 -55 -7z"/>
<path d="M8867 1003 c-4 -3 -7 -53 -7 -110 l0 -103 55 0 55 0 0 110 0 110 -48
0 c-27 0 -52 -3 -55 -7z"/>
<path d="M12705 6810 c27 -12 43 -12 25 0 -8 5 -22 9 -30 9 -10 0 -8 -3 5 -9z"/>
<path d="M12690 6769 c0 -5 5 -7 10 -4 6 3 10 8 10 11 0 2 -4 4 -10 4 -5 0
-10 -5 -10 -11z"/>
<path d="M12600 6730 c0 -5 5 -10 11 -10 5 0 7 5 4 10 -3 6 -8 10 -11 10 -2 0
-4 -4 -4 -10z"/>
<path d="M13207 6649 c7 -7 15 -10 18 -7 3 3 -2 9 -12 12 -14 6 -15 5 -6 -5z"/>
<path d="M13285 6620 c3 -5 10 -10 16 -10 5 0 9 5 9 10 0 6 -7 10 -16 10 -8 0
-12 -4 -9 -10z"/>
<path d="M13325 6610 c3 -5 8 -10 11 -10 2 0 4 5 4 10 0 6 -5 10 -11 10 -5 0
-7 -4 -4 -10z"/>
<path d="M12893 6588 c-5 -67 -3 -232 3 -262 5 -30 12 -37 52 -50 61 -21 83
-20 89 4 7 26 26 25 115 -6 97 -34 114 -38 122 -25 4 5 7 56 7 112 0 89 -2
104 -20 123 -12 13 -19 25 -16 28 3 3 -6 3 -20 1 -15 -3 -25 -1 -25 6 0 7 -4
10 -9 7 -5 -3 -11 0 -14 7 -3 8 -18 12 -36 11 -17 -1 -31 2 -31 6 0 5 -13 11
-30 15 -16 4 -30 12 -30 18 0 7 -17 12 -42 12 -24 1 -59 4 -78 9 -33 7 -36 5
-37 -16z m101 -24 c24 -9 20 -33 -4 -27 -11 3 -20 12 -20 19 0 16 2 16 24 8z
m80 -45 c-5 -9 -44 1 -44 10 0 4 3 10 6 14 8 8 44 -15 38 -24z m66 -20 c0 -11
-3 -11 -24 -3 -23 9 -20 23 4 17 11 -3 20 -9 20 -14z m90 -19 c8 -5 11 -12 8
-16 -10 -9 -58 4 -58 16 0 13 30 13 50 0z"/>
<path d="M12830 6566 c0 -2 11 -6 25 -8 13 -3 22 -1 19 3 -5 9 -44 13 -44 5z"/>
<path d="M12941 6244 c0 -11 3 -14 6 -6 3 7 2 16 -1 19 -3 4 -6 -2 -5 -13z"/>
</g>
</svg>
